<svg xmlns="http://www.w3.org/2000/svg"
shape-rendering="geometricPrecision"
width="4000" height="4000" viewBox="0 0 698 698"><rect width="100%" height="100%" fill="#FFFFFF" />
  <metadata>null</metadata>

<path d="
M 122.293 421.543
C 122.068 420.279 120.846 418.942 120.182 417.849
C 118.511 415.097 116.948 412.261 115.411 409.432
C 107.917 395.639 97.528 383.67 86.238 372.878
C 82.609 369.41 78.666 365.908 74.596 362.971
C 73.77 362.375 71.214 359.68 70.371 361.084
C 67.611 359.213 65.471 356.448 62.466 354.88
C 63.595 354.903 61.823 354.369 61.624 354.274
C 61.963 354.97 62.43 355.482 62.95 356.052
C 64.531 358.107 66.557 359.875 68.293 361.804
C 71.094 364.916 73.675 368.258 76.116 371.656
C 83.99 382.615 90.742 394.411 96.86 406.421
C 100.247 413.07 103.805 419.861 106.386 426.868
C 98.309 425.762 90.123 423.147 82.714 419.765
C 76.21 416.795 69.916 413.021 64.381 408.469
C 43.206 391.051 33.115 365.577 31.894 338.603
C 31.461 329.04 32.544 319.726 33.798 310.285
C 64.351 313.652 97.886 329.528 112.902 357.662
C 119.73 370.455 123.225 384.722 123.39 399.194
C 123.447 404.285 122.95 409.349 122.671 414.426
C 122.556 416.511 122.916 419.602 122.293 421.543 Z"
opacity="1" fill="rgb(57,101,150)" fill-rule="evenodd" />
<path d="
M 62.466 354.88
C 62.628 355.271 62.789 355.661 62.95 356.052
C 62.43 355.482 61.963 354.97 61.624 354.274
C 61.823 354.369 63.595 354.903 62.466 354.88 Z"
opacity="0.988" fill="rgb(158,184,213)" fill-rule="evenodd" />
<path d="
M 62.469 296.334
C 66.721 296.38 70.99 296.344 75.241 296.252
C 76.076 302.232 74.025 308.964 75.632 314.828
C 74.611 314.859 72.431 313.214 71.47 312.747
C 68.517 311.314 65.499 310.286 62.308 309.563
C 61.779 308.627 62.091 307.123 62.09 306.052
C 62.086 303.041 62.502 299.597 61.91 296.655
C 62.096 296.548 62.282 296.441 62.469 296.334 Z"
opacity="1" fill="rgb(60,98,142)" fill-rule="evenodd" />
<path d="
M 122.293 421.543
C 122.294 424.864 121.642 428.246 121.386 431.56
C 121.176 434.268 121.359 437.002 121.117 439.698
C 120.397 438.925 120.202 437.577 119.796 436.602
C 118.708 433.99 117.7 431.317 116.477 428.764
C 112.074 419.569 107.651 410.404 102.533 401.58
C 96.738 391.592 89.987 382.158 82.483 373.384
C 80.161 370.669 77.703 367.86 75.124 365.39
C 73.632 363.96 71.509 362.819 70.371 361.084
C 71.214 359.68 73.77 362.375 74.596 362.971
C 78.666 365.908 82.609 369.41 86.238 372.878
C 97.528 383.67 107.917 395.639 115.411 409.432
C 116.948 412.261 118.511 415.097 120.182 417.849
C 120.846 418.942 122.068 420.279 122.293 421.543 Z"
opacity="1" fill="rgb(26,40,56)" fill-rule="evenodd" />
<path d="
M 80.8 277.78
C 82.174 277.238 84.09 277.543 85.558 277.558
C 88.41 277.588 91.279 277.573 94.11 277.307
C 94.413 278.315 94.121 279.74 94.1 280.806
C 94.049 283.376 93.937 285.934 93.934 288.507
C 93.923 297.254 94.064 305.991 94.1 314.733
C 94.112 317.594 94.173 320.467 94.102 323.327
C 94.093 323.69 94.243 325.721 94.005 325.924
C 91.663 323.769 88.836 321.854 86.065 320.297
C 84.51 319.423 82.187 318.657 80.934 317.424
C 80.492 314.056 80.864 310.397 80.848 306.996
C 80.803 297.308 81.391 287.446 80.8 277.78 Z"
opacity="1" fill="rgb(72,113,158)" fill-rule="evenodd" />
<path d="
M 99.154 259.706
C 103.478 259.853 107.904 259.855 112.229 259.64
C 113.049 261.063 112.423 264.346 112.428 266.009
C 112.445 271.653 112.44 277.296 112.458 282.94
C 112.496 294.799 112.314 306.679 112.466 318.535
C 112.577 327.188 113.133 336.038 112.69 344.663
C 110.265 341.204 107.341 337.985 104.342 335.014
C 102.791 333.476 100.841 332.158 99.452 330.493
C 98.872 328.372 99.305 325.468 99.297 323.254
C 99.282 318.504 99.251 313.753 99.238 309.003
C 99.194 292.59 99.671 276.11 99.154 259.706 Z"
opacity="1" fill="rgb(43,82,126)" fill-rule="evenodd" />
<path d="
M 117.985 291.094
C 118 290.877 118.015 290.661 118.03 290.444
C 119.542 289.653 121.403 289.96 123.084 289.901
C 123.648 291.124 123.113 293.625 123.106 294.996
C 123.087 299.162 123.044 303.327 123.042 307.492
C 123.036 319.42 123.066 331.343 123.115 343.267
C 123.13 346.77 123.042 350.288 123.176 353.788
C 123.221 354.99 123.721 356.827 123.389 357.972
C 122.46 357.561 121.775 355.74 121.176 354.922
C 120.233 353.634 118.506 352.124 118.152 350.534
C 117.517 347.681 118.207 343.942 118.195 341.001
C 118.13 324.397 117.578 307.686 117.985 291.094 Z"
opacity="1" fill="rgb(57,95,138)" fill-rule="evenodd" />
<path d="
M 129.547 303.615
C 129.789 303.413 130.032 303.21 130.282 303.001
C 130.794 303.683 131.151 304.518 131.719 305.135
C 133.36 305.518 135.137 305.447 136.81 305.67
C 139.273 305.998 141.512 306.676 143.886 307.33
C 147.248 304.1 149.529 299.767 152.854 296.499
C 156.563 298.224 160.23 300.058 163.932 301.808
C 165.777 302.68 168.216 303.394 169.735 304.776
C 169.18 309.469 165.949 314.333 166.188 319.132
C 168.606 320.741 170.505 323.029 172.457 325.141
C 173.245 325.994 173.989 327.296 174.899 327.971
C 179.748 327.542 184.535 324.63 189.483 324.838
C 191.247 329.178 194.245 333.101 195.975 337.481
C 196.394 338.54 197.774 340.286 197.424 341.429
C 193.256 342.823 189.496 347.189 185.961 349.721
C 186.095 352.345 186.935 355.155 187.336 357.776
C 187.586 359.406 187.421 361.427 187.988 362.951
C 192.523 364.013 197.843 366.293 201.891 368.578
C 201.951 371.391 201.075 374.47 200.504 377.214
C 199.846 380.379 199.456 383.826 198.307 386.856
C 193.493 387.129 188.61 387.154 183.811 387.657
C 182.741 388.6 182.27 390.484 181.634 391.743
C 180.412 394.163 178.829 396.28 177.499 398.614
C 177.551 399.88 178.692 401.094 179.316 402.167
C 180.52 404.237 181.634 406.378 182.705 408.519
C 183.012 409.133 184.618 411.108 184.399 411.692
C 181.094 414.474 178.093 417.613 174.796 420.409
C 173.68 421.356 172.382 423.029 171.071 423.651
C 168.155 421.857 165.276 419.919 162.398 418.056
C 161.4 417.409 160.199 416.18 159.107 415.812
C 155.506 418.145 151.227 419.052 147.622 421.23
C 147.537 425.935 145.908 430.511 145.748 435.228
C 140.497 435.535 135.243 436.447 129.989 436.875
C 129.569 436.384 129.728 435.637 129.726 435.006
C 129.721 433.174 129.767 431.339 129.773 429.505
C 129.796 422.618 129.468 415.733 129.473 408.853
C 130.524 408.314 132.295 408.587 133.495 408.451
C 136.213 408.142 138.927 407.694 141.549 406.898
C 151.392 403.91 159.539 397.464 165.287 389.004
C 176.724 372.171 173.623 347.937 159.373 333.773
C 151.392 325.84 140.865 321.427 129.698 320.731
C 129.002 315.304 129.305 309.074 129.547 303.615 Z"
opacity="1" fill="rgb(24,36,51)" fill-rule="evenodd" />
<path d="
M 129.484 394.125
C 129.77 391.05 129.724 387.72 129.482 384.645
C 130.673 383.784 133.152 383.917 134.624 383.456
C 137.58 382.529 140.154 380.87 142.325 378.675
C 149.598 371.324 150.083 358.073 142.228 350.866
C 139.94 348.767 137.165 347.071 134.209 346.107
C 132.818 345.654 131.017 345.759 129.745 345.164
C 129.781 341.576 129.615 337.929 129.833 334.35
C 130.178 333.822 130.828 334.056 131.405 334.08
C 133.039 334.145 134.653 334.521 136.229 334.931
C 142.511 336.568 148.452 339.958 152.575 345.053
C 163.463 358.506 161.672 378.97 147.706 389.614
C 142.195 393.814 136.268 394.999 129.581 395.88
C 129.316 395.364 129.462 394.688 129.484 394.125 Z"
opacity="1" fill="rgb(25,34,49)" fill-rule="evenodd" />
<path d="
M 136.035 269.767
C 139.867 269.919 143.943 269.356 147.775 269.051
C 148.841 268.966 151.492 268.203 152.37 268.863
C 152.094 269.976 150.779 271.124 150.143 272.101
C 151.215 273.627 154.253 274.677 155.82 275.784
C 160.379 279.007 164.75 282.4 168.886 286.158
C 172.498 289.439 175.679 293.187 178.584 297.102
C 180.389 299.533 181.891 302.665 184.488 304.372
C 185.251 303.626 185.869 300.399 185.612 299.377
C 184.82 298.789 184.001 298.242 183.2 297.667
C 182.77 296.142 184.557 293.914 185.437 292.747
C 186.507 292.512 187.187 293.622 188.15 293.965
C 189.61 294.109 191.661 292.588 192.435 291.417
C 192.348 290.375 191.688 289.128 191.296 288.167
C 193.058 287.451 194.851 287.058 196.649 286.48
C 197.055 287.562 197.586 288.808 198.335 289.698
C 199.224 290.211 201.701 290.54 202.633 290.017
C 203.389 289.019 204.02 287.937 204.743 286.916
C 205.616 287.309 209.084 288.059 209.296 288.98
C 209.026 290.041 208.192 291.512 208.332 292.572
C 210.551 294.438 211.639 295.014 214.248 293.636
C 215.384 294.079 216.743 297.451 216.902 298.588
C 216.735 299.45 215.175 300.21 214.609 300.887
C 214.452 302.123 214.328 304.291 215.067 305.352
C 215.943 305.703 217.29 305.833 217.952 306.506
C 217.629 308.234 217.256 309.993 216.727 311.67
C 215.944 311.886 214.937 311.456 214.115 311.458
C 213.028 312.331 211.717 313.633 211.532 315.06
C 211.984 315.948 213.158 317.357 213.171 318.353
C 212.526 319.403 209.898 320.797 208.669 320.346
C 207.926 319.663 207.238 318.983 206.44 318.362
C 204.889 318.078 203.205 318.835 201.758 319.316
C 201.603 320.689 201.675 322.171 200.641 323.197
C 199.327 323.746 196.456 323.38 195.433 322.321
C 195.279 321.307 195.616 320.265 195.381 319.273
C 194.267 318.764 191.739 316.933 190.579 317.325
C 190.344 317.851 190.084 318.275 189.74 318.735
C 188.341 319.438 186.373 317.74 185.914 316.501
C 186.054 315.239 186.853 314.15 186.973 312.894
C 187.23 310.192 183.501 310.116 181.999 308.937
C 181.762 308.072 181.912 307.11 181.475 306.304
C 179.789 303.194 176.513 300.269 173.871 297.956
C 168.108 292.909 162.013 288.305 155.414 284.385
C 153.042 282.975 150.626 281.642 148.168 280.389
C 147.34 279.967 146.373 279.057 145.463 279.304
C 145.156 279.889 143.767 283.554 143.153 283.396
C 140.37 279.115 138.692 274.129 136.035 269.767 Z
M 190.93 303.089
C 190.691 304.303 190.699 305.662 190.954 306.872
C 192.844 315.866 206.734 315.751 208.663 306.855
C 210.662 297.645 198.016 291.546 192.484 299.521
C 191.781 300.534 191.17 301.875 190.93 303.089 Z"
opacity="1" fill="rgb(54,91,133)" fill-rule="evenodd" />
<path d="
M 197.767 343.93
C 199.708 343.18 201.124 341.997 201.204 339.745
C 198.817 337.993 197.182 334.21 200.486 332.277
C 201.686 332.341 202.727 332.886 203.912 332.986
C 204.586 332.327 205.277 331.589 205.75 330.771
C 205.862 329.835 204.825 328.711 204.497 327.848
C 205.859 326.766 207.546 325.938 209.25 325.587
C 210.144 326.157 210.506 327.489 211.416 327.936
C 212.394 327.913 213.736 327.865 214.636 327.446
C 215.21 326.729 215.466 325.5 215.753 324.629
C 217.323 324.845 218.972 325.077 220.492 325.531
C 220.405 326.5 219.875 327.484 219.895 328.431
C 221.843 330.839 223.664 330.708 226.101 329.329
C 226.955 330.348 228.89 332.649 228.986 333.923
C 228.518 334.947 227.444 335.442 227.036 336.497
C 227.547 337.618 227.963 338.967 229.023 339.725
C 229.759 340.251 230.847 340.284 231.675 340.636
C 231.657 342.281 231.372 344.092 230.942 345.68
C 230.15 346.07 228.94 345.752 228.05 346.016
C 227.278 346.899 226.076 348.704 226.534 349.973
C 226.86 350.875 227.879 351.447 228.473 352.153
C 227.64 353.258 226.574 354.212 225.628 355.223
C 225.04 355.461 224.172 354.629 223.688 354.37
C 222.104 353.522 220.406 353.984 219.463 355.531
C 219.213 356.483 218.934 358.157 219.239 359.117
C 217.934 358.946 216.348 359.213 215.041 359.386
C 214.116 358.861 214.337 357.211 213.6 356.416
C 212.588 355.693 210.854 355.057 209.603 355.32
C 208.699 356.121 207.824 356.952 206.806 357.602
C 205.554 357.864 203.741 355.651 202.942 354.923
C 203.175 353.789 204.184 353.132 204.92 352.294
C 205.104 351.034 203.089 349.244 202.106 348.67
C 201.056 348.583 200.082 348.766 199.046 348.905
C 198.431 347.622 197.57 345.317 197.767 343.93 Z
M 206.438 341.112
C 205.641 349.54 218.028 353.501 222.022 345.886
C 222.613 344.76 222.993 343.658 223.091 342.382
C 223.187 341.138 223.133 339.884 222.699 338.703
C 219.586 330.244 207.267 332.348 206.438 341.112 Z"
opacity="1" fill="rgb(53,86,127)" fill-rule="evenodd" />
<path d="
M 235.966 293.153
C 238.473 293.313 241.064 293.255 243.581 293.185
C 244.423 293.161 245.833 292.824 246.506 293.267
C 247.672 297.172 249.63 300.969 251.169 304.746
C 254.593 313.148 258.098 321.52 261.455 329.949
C 262.955 333.719 264.652 337.568 265.582 341.524
C 266.112 341.568 266.651 339.19 266.831 338.666
C 267.834 335.757 268.988 332.89 270.119 330.026
C 273.381 321.759 276.759 313.534 280.173 305.328
C 281.795 301.429 283.035 296.683 285.221 293.098
C 288.464 293.148 291.939 293.39 295.156 292.958
C 295.232 292.959 294.979 293.565 294.963 293.603
C 294.751 294.124 294.525 294.643 294.306 295.161
C 293.656 296.704 293.032 298.257 292.424 299.818
C 290.588 304.536 288.47 309.141 286.537 313.82
C 282.575 323.416 278.598 333.024 274.441 342.539
C 273.275 345.206 272.137 347.887 270.961 350.551
C 270.596 351.377 270.487 352.581 269.94 353.287
C 266.989 353.397 264.016 353.076 261.068 353.32
C 258.407 349.245 257.092 343.69 255.18 339.205
C 250.891 329.144 246.757 319.014 242.579 308.907
C 240.427 303.699 238.626 298.114 235.966 293.153 Z"
opacity="1" fill="rgb(37,74,120)" fill-rule="evenodd" />
<path d="
M 246.69 377.279
C 251.042 377.331 256.903 376.376 261.042 377.927
C 266.43 379.946 264.963 385.816 261.279 388.464
C 261.23 389.137 263.099 389.425 263.761 389.894
C 264.849 390.664 265.429 391.918 265.611 393.207
C 266.087 396.585 263.934 399.347 260.664 400.031
C 256.187 400.968 251.424 399.933 246.897 400.46
C 246.267 398.037 246.781 395.002 246.759 392.5
C 246.715 387.447 246.527 382.324 246.69 377.279 Z
M 249.467 381.126
C 249.232 383.267 249.513 385.434 249.331 387.577
C 250.017 387.948 251.072 387.335 251.856 387.436
C 254.236 387.745 259.037 387.992 260.753 386
C 262.378 384.112 261.791 380.333 259 379.948
C 257.502 379.742 255.954 379.861 254.448 379.863
C 252.801 379.865 251.131 379.678 249.515 380.076
C 249.508 380.866 249.533 380.517 249.467 381.126 Z
M 249.377 389.875
C 249.47 392.572 249.161 395.311 249.4 398.004
C 252.967 397.513 258.008 398.917 261.213 397.083
C 263.612 395.71 263.336 391.925 261.064 390.604
C 257.894 388.763 252.89 389.939 249.377 389.875 Z"
opacity="1" fill="rgb(20,60,94)" fill-rule="evenodd" />
<path d="
M 271.938 378.611
C 272.047 378.074 272.003 378.427 271.922 377.544
C 272.82 377.315 273.655 377.165 274.58 377.223
C 275.146 378.275 274.763 380.296 274.763 381.488
C 274.762 385.515 273.611 391.569 275.911 395.088
C 278.909 399.675 285.919 399.003 288.2 394.147
C 289.18 392.061 288.954 389.544 288.926 387.302
C 288.885 384.01 289.096 380.662 288.883 377.38
C 289.465 377.234 291.471 376.947 291.801 377.498
C 291.774 383.013 293.022 390.378 290.583 395.486
C 287.56 401.82 277.564 402.67 273.695 396.6
C 272.268 394.361 272.262 392.024 272.086 389.471
C 271.837 385.873 271.849 382.219 271.938 378.611 Z"
opacity="1" fill="rgb(20,61,93)" fill-rule="evenodd" />
<path d="
M 293.824 352.581
C 295.148 348.87 297.12 345.221 298.789 341.645
C 301.872 335.04 304.761 328.337 307.807 321.712
C 312.173 312.216 315.913 302.074 320.987 292.951
C 323.573 292.69 327.438 292.291 329.964 292.842
C 331.766 297.389 334.129 301.764 336.156 306.225
C 340.23 315.19 344.316 324.163 348.337 333.154
C 350.104 337.104 351.846 341.082 353.451 345.1
C 354.513 347.759 355.524 350.91 357.225 353.234
C 353.747 352.602 350.053 353.191 346.554 352.971
C 344.977 348.132 342.734 343.415 340.69 338.764
C 335.49 337.849 329.911 339.348 324.689 338.693
C 323.131 336.497 321.791 334.147 320.209 331.961
C 319.845 331.458 318.709 330.302 319.009 329.771
C 323.497 329.786 328.001 329.749 332.491 329.65
C 333.592 329.625 334.797 329.338 335.884 329.44
C 336.147 329.465 336.647 329.717 336.857 329.464
C 335.007 326.815 334.02 323.598 332.801 320.637
C 331.298 316.988 329.702 313.355 328.07 309.762
C 327.369 308.22 326.503 306.612 325.984 305.006
C 325.787 304.393 325.712 303.464 324.937 303.66
C 321.078 314.136 316.391 324.639 311.635 334.741
C 308.841 340.677 305.761 346.783 303.617 352.986
C 302.709 353.221 301.475 352.955 300.516 352.959
C 298.237 352.968 295.925 353.003 293.655 353.216
C 293.711 353.005 293.768 352.793 293.824 352.581 Z"
opacity="1" fill="rgb(35,74,118)" fill-rule="evenodd" />
<path d="
M 298.47 396.566
C 298.77 396.1 299.138 395.729 299.513 395.321
C 300.408 395.423 301.003 396.214 301.734 396.693
C 302.702 397.326 303.905 397.816 305.037 398.045
C 306.846 398.41 309.058 398.5 310.727 397.591
C 312.856 396.431 313.714 394.011 311.872 392.163
C 308.574 388.852 302.171 390.723 299.55 386.3
C 297.531 382.891 300.44 378.484 303.816 377.436
C 307.829 376.19 311.449 377.765 314.923 379.618
C 315.222 380.417 314.11 381.533 313.508 381.974
C 311.167 379.93 308.118 378.996 305.082 379.82
C 303.003 380.384 300.713 382.682 302.119 384.988
C 303.106 386.608 305.343 387.035 307.023 387.441
C 309.784 388.109 313.278 388.96 314.943 391.493
C 317.458 395.321 313.977 399.388 310.283 400.342
C 305.54 401.568 302.24 399.388 298.13 397.546
C 298.269 396.822 298.145 397.145 298.47 396.566 Z"
opacity="1" fill="rgb(21,57,87)" fill-rule="evenodd" />
<path d="
M 323.303 377.301
C 324.258 377.286 325.205 377.195 326.158 377.293
C 326.373 384.988 325.852 392.73 325.928 400.43
C 325.086 400.578 324.212 400.706 323.363 400.579
C 323.354 392.855 323.661 385.014 323.303 377.301 Z"
opacity="1" fill="rgb(20,63,88)" fill-rule="evenodd" />
<path d="
M 335.819 377.308
C 336.592 377.305 337.316 377.269 338.083 377.366
C 340.186 379.198 341.719 382.013 343.464 384.193
C 346.547 388.043 349.998 391.728 352.604 395.923
C 353.232 395.121 352.615 392.021 352.593 390.997
C 352.499 386.526 352.926 381.971 352.492 377.52
C 353.383 377.337 354.381 377.361 355.282 377.49
C 355.188 383.153 355.339 388.823 355.245 394.487
C 355.221 395.939 355.233 397.383 355.247 398.834
C 355.251 399.315 355.367 400.13 355.003 400.503
C 352.907 400.722 351.76 398.781 350.585 397.343
C 347.65 393.75 344.736 390.127 341.893 386.457
C 340.974 385.27 340.007 384.123 339.074 382.953
C 338.785 382.591 338.658 381.638 338.241 381.84
C 338.13 381.894 338.101 383 338.121 383.356
C 338.216 385.07 338.245 386.767 338.252 388.487
C 338.259 390.154 338.258 391.82 338.265 393.487
C 338.275 395.75 337.873 398.472 338.311 400.683
C 337.437 400.656 336.579 400.699 335.715 400.556
C 335.637 395.036 335.667 389.516 335.661 383.995
C 335.659 382.04 335.009 379.079 335.819 377.308 Z"
opacity="1" fill="rgb(17,59,90)" fill-rule="evenodd" />
<path d="
M 363.963 378.6
C 364.063 377.985 364.035 378.348 363.967 377.506
C 365.596 376.883 367.779 377.298 369.509 377.308
C 373.218 377.328 376.958 377.44 380.663 377.249
C 380.674 377.984 381.006 379.352 380.532 379.942
C 376.034 379.717 371.403 379.829 366.902 379.957
C 366.336 381.829 366.41 385.608 366.862 387.522
C 370.968 387.077 375.194 387.411 379.306 387.502
C 379.359 388.272 379.32 389.038 379.355 389.808
C 375.247 389.535 370.956 389.733 366.84 389.87
C 366.718 392.48 366.81 395.112 366.667 397.713
C 371.428 398.654 376.697 397.247 381.528 397.802
C 381.438 398.615 381.407 399.433 381.321 400.247
C 375.778 399.976 370.049 400.123 364.502 400.392
C 363.595 399.666 363.934 396.223 363.932 395.001
C 363.922 389.575 363.573 384.012 363.963 378.6 Z"
opacity="1" fill="rgb(22,60,88)" fill-rule="evenodd" />
<path d="
M 367.992 307.619
C 368.514 302.994 368.32 297.78 368.073 293.134
C 369.841 292.957 371.61 293.186 373.379 293.059
C 374.266 292.995 375.47 292.659 376.265 293.11
C 380.044 298.283 384.472 303.057 388.464 308.072
C 395.962 317.494 403.325 327.037 410.942 336.359
C 411.298 335.885 410.826 334.097 410.809 333.491
C 410.733 330.834 410.787 328.163 410.788 325.503
C 410.793 314.767 411.109 303.934 410.611 293.21
C 413.758 293.146 417.043 292.95 420.18 293.149
C 419.668 307.896 420.332 322.738 420.198 337.502
C 420.164 341.334 420.089 345.169 420.116 349.001
C 420.123 349.865 419.754 352.489 420.219 353.119
C 418.67 352.22 414.831 352.908 413.067 352.909
C 412.184 352.341 411.645 351.179 411.003 350.35
C 409.38 348.251 407.694 346.191 406.035 344.119
C 400.301 336.954 394.651 329.72 388.788 322.66
C 385.973 319.27 383.283 315.783 380.48 312.385
C 379.737 311.483 378.964 310.553 378.295 309.598
C 378.097 309.315 378.053 308.813 377.715 308.739
C 377.477 308.686 377.51 309.182 377.408 309.403
C 377.3 318.934 377.3 328.469 377.285 338.002
C 377.277 342.927 377 347.933 377.279 352.849
C 374.612 353.627 370.755 352.86 367.951 352.966
C 367.327 346.567 367.869 339.922 367.911 333.497
C 367.967 324.887 367.667 316.222 367.992 307.619 Z"
opacity="1" fill="rgb(35,74,119)" fill-rule="evenodd" />
<path d="
M 386.285 397.138
C 386.651 396.329 387.257 395.694 387.879 395.07
C 390.818 397.226 393.993 398.831 397.731 397.874
C 399.505 397.42 401.826 395.915 401.095 393.745
C 399.161 388.004 389.323 391.406 387.352 385.559
C 387.076 384.74 387.053 383.842 387.102 382.986
C 387.584 374.712 398.232 376.846 402.842 379.569
C 402.587 380.291 402.297 381.399 401.51 381.717
C 398.978 380.006 396.224 378.803 393.118 379.611
C 391.309 380.081 389.644 381.42 389.727 383.416
C 389.828 385.836 392.287 386.668 394.288 387.16
C 397.69 387.997 402.207 388.883 403.533 392.637
C 404.784 396.18 401.814 399.419 398.573 400.241
C 393.969 401.41 390.084 399.583 386.285 397.138 Z"
opacity="1" fill="rgb(21,55,86)" fill-rule="evenodd" />
<path d="
M 408.853 397.123
C 409.115 396.382 409.403 395.881 409.935 395.296
C 411.765 395.435 413.459 397.509 415.39 397.99
C 417.214 398.445 419.585 398.532 421.276 397.585
C 423.338 396.43 424.277 393.916 422.449 392.083
C 419.129 388.754 412.993 390.477 410.131 386.338
C 407.765 382.915 410.639 378.481 414.113 377.4
C 418.02 376.184 421.941 377.797 425.385 379.541
C 425.098 380.411 424.651 381.162 424.224 381.967
C 423.625 382.21 421.624 380.397 420.918 380.083
C 418.326 378.929 413.695 378.89 412.369 381.968
C 411.181 384.724 413.664 386.317 415.884 386.983
C 419.849 388.173 426.466 388.887 426.205 394.456
C 425.803 403.035 413.352 401.423 408.841 397.5
C 408.845 397.374 408.849 397.248 408.853 397.123 Z"
opacity="1" fill="rgb(24,59,88)" fill-rule="evenodd" />
<path d="
M 432.359 293.401
C 433.184 292.714 434.984 293.104 436.046 293.12
C 439.031 293.165 442.019 293.079 445.004 293.067
C 452.672 293.037 460.34 293.059 468.008 293.082
C 472.172 293.094 476.586 293.46 480.717 292.889
C 480.923 295.838 480.344 298.881 480.706 301.822
C 474.46 301.563 467.719 301.388 461.5 302.013
C 461.689 318.974 460.883 336.005 461.385 352.964
C 458.256 352.88 455.111 352.724 451.985 352.927
C 451.699 350.287 452.073 347.437 452.075 344.774
C 452.078 339.52 451.903 334.259 451.908 328.998
C 451.916 320.093 451.225 310.88 451.9 302.013
C 445.496 301.305 438.897 302.582 432.505 301.757
C 432.401 298.977 432.499 296.181 432.359 293.401 Z"
opacity="1" fill="rgb(36,76,119)" fill-rule="evenodd" />
<path d="
M 443.26 397.106
C 443.771 396.401 444.223 395.641 445.064 395.321
C 446.864 395.984 448.102 397.556 450.044 398.009
C 451.815 398.423 454.207 398.486 455.897 397.705
C 458.099 396.688 458.795 394.145 457.23 392.256
C 453.962 388.31 444.848 390.884 444.386 384.013
C 443.952 377.553 451.593 375.732 456.411 377.732
C 457.436 378.158 459.498 378.761 460.022 379.757
C 459.825 380.478 459.373 381.708 458.562 381.904
C 456.566 380.906 455.477 379.482 453.068 379.339
C 450.341 379.178 445.431 381.385 447.558 384.926
C 448.422 386.364 450.28 386.787 451.769 387.193
C 454.665 387.983 458.423 388.639 460.239 391.289
C 463.293 395.744 458.667 399.977 454.467 400.688
C 449.935 401.456 447.287 399.172 443.435 397.525
C 443.376 397.385 443.318 397.246 443.26 397.106 Z"
opacity="1" fill="rgb(20,56,86)" fill-rule="evenodd" />
<path d="
M 466.496 388.613
C 466.55 386.958 467.019 385.159 467.754 383.687
C 469.484 380.229 472.381 377.839 476.231 377.103
C 483.456 375.721 491.058 381.864 490.566 389.37
C 490.434 391.39 489.856 393.495 488.806 395.235
C 482.669 405.395 466.11 400.465 466.496 388.613 Z
M 469.457 388.62
C 469.425 390.048 469.661 391.57 470.266 392.872
C 474.34 401.639 487.344 398.883 487.566 389.197
C 487.73 382.083 479.727 376.503 473.506 380.988
C 472.165 381.956 471.252 383.251 470.512 384.711
C 469.894 385.93 469.487 387.239 469.457 388.62 Z"
opacity="1" fill="rgb(20,59,91)" fill-rule="evenodd" />
<path d="
M 480.81 352.721
C 490.674 333.152 498.331 312.441 507.9 292.724
C 510.953 292.707 513.997 292.792 517.05 292.725
C 518.657 297.133 521.011 301.335 522.916 305.625
C 527.497 315.938 532.12 326.237 536.819 336.499
C 538.714 340.638 540.629 344.759 542.378 348.962
C 542.92 350.263 544.114 351.906 544.381 353.244
C 541.004 353.094 537.102 352.625 533.761 353.137
C 532.92 352.214 532.647 350.343 532.157 349.165
C 531.149 346.737 530.078 344.325 529.047 341.904
C 528.599 340.852 528.321 339.649 527.621 338.733
C 522.46 338.94 517.258 338.693 512.095 338.882
C 511.216 336.985 510.199 335.132 509.066 333.371
C 508.228 332.069 507.288 331.143 507.414 329.554
C 511.6 329.34 515.811 329.393 520.003 329.386
C 520.712 329.384 523.543 329.832 523.912 329.406
C 522.09 324.683 519.7 320.012 517.6 315.393
C 515.75 311.325 514.243 307.107 512.308 303.084
C 511.403 306.5 509.327 309.726 507.973 313
C 504.475 321.461 500.69 329.83 496.997 338.208
C 494.912 342.937 492.113 347.807 490.785 352.812
C 487.952 353.728 483.955 352.709 480.963 352.937
C 480.912 352.865 480.861 352.793 480.81 352.721 Z"
opacity="1" fill="rgb(35,75,120)" fill-rule="evenodd" />
<path d="
M 498.156 377.195
C 499.008 377.189 499.85 377.172 500.7 377.233
C 501.453 378.472 500.825 381.521 500.83 382.996
C 500.846 388.019 500.76 393.044 500.877 398.062
C 505.243 398.046 509.629 397.912 514.001 397.852
C 514.035 398.693 514.226 399.587 514.113 400.425
C 512.479 400.787 510.197 400.401 508.502 400.4
C 505.052 400.398 501.603 400.566 498.162 400.574
C 497.878 392.825 497.892 384.941 498.156 377.195 Z"
opacity="0.996" fill="rgb(25,64,89)" fill-rule="evenodd" />
<path d="
M 519.662 377.267
C 520.555 377.228 521.573 377.016 522.382 377.468
C 522.206 380.761 522.306 384.128 522.309 387.432
C 522.311 389.659 522.116 392.003 523.048 394.086
C 525.696 400.005 533.333 399.034 535.802 393.622
C 536.465 392.17 536.332 390.669 536.471 389.126
C 536.825 385.199 536.565 381.173 536.47 377.243
C 537.425 377.14 538.266 377.101 539.222 377.186
C 539.739 378.888 539.319 381.209 539.31 382.987
C 539.288 387.67 540.071 393.157 537.063 397.149
C 533.288 402.163 524.477 401.795 521.214 396.409
C 519.357 393.343 519.642 390.034 519.641 386.588
C 519.64 383.498 519.427 380.348 519.662 377.267 Z"
opacity="1" fill="rgb(17,58,88)" fill-rule="evenodd" />
<path d="
M 545.387 377.274
C 549.92 377.161 554.473 377.254 559.01 377.264
C 560.37 377.267 562.978 376.723 564.127 377.363
C 564.297 378.204 564.325 379.138 564.086 379.966
C 561.681 380.309 558.968 379.74 556.511 379.858
C 555.614 381.545 556.09 384.346 556.107 386.231
C 556.152 391.029 555.692 395.953 556.137 400.702
C 555.279 400.804 554.389 400.695 553.525 400.772
C 552.908 398.692 553.393 395.772 553.415 393.602
C 553.463 389.049 553.331 384.465 553.448 379.921
C 550.85 379.649 548.056 379.706 545.454 379.945
C 545.37 379.052 545.416 378.168 545.387 377.274 Z"
opacity="1" fill="rgb(25,63,92)" fill-rule="evenodd" />
<path d="
M 549.425 318.094
C 550.298 313.957 551.464 310.046 553.661 306.391
C 561.292 293.693 577.599 289.159 591.351 293.35
C 596.027 294.775 599.635 297.592 603.425 300.539
C 602.54 301.981 601.216 303.133 600.165 304.458
C 599.446 305.364 598.808 306.644 597.896 307.356
C 596.085 306.674 594.454 304.694 592.744 303.687
C 588.988 301.473 584.443 300.394 580.092 300.604
C 575.589 300.821 571.058 302.26 567.442 305.009
C 553.938 315.275 556.692 338.221 572.8 344.102
C 576.201 345.344 579.861 345.823 583.467 345.555
C 587.892 345.226 592.2 343.396 595.924 341.083
C 596.499 340.127 596.032 338.349 595.975 337.279
C 595.807 334.174 595.856 331.029 595.925 327.926
C 594.514 327.449 592.498 327.803 591.002 327.794
C 587.322 327.771 583.647 327.807 579.969 327.86
C 579.51 327.342 579.762 326.191 579.779 325.502
C 579.826 323.62 579.302 321.188 579.828 319.398
C 588.135 319.898 596.517 319.356 604.829 319.499
C 605.233 321.289 604.915 323.343 604.915 325.172
C 604.913 329.117 604.92 333.061 604.934 337.006
C 604.942 339.37 605.625 342.834 604.974 345.071
C 602.589 347.46 598.752 349.434 595.702 350.821
C 580.475 357.746 560.422 353.704 552.455 337.923
C 551.13 335.298 550.156 332.458 549.656 329.559
C 549.009 325.812 548.848 321.869 549.425 318.094 Z"
opacity="1" fill="rgb(36,77,122)" fill-rule="evenodd" />
<path d="
M 571.047 378.114
C 571.054 377.524 570.967 377.828 571.476 377.268
C 572.167 377.294 573.271 377.063 573.858 377.485
C 573.294 385.073 573.384 393.081 573.711 400.68
C 572.894 400.639 571.94 400.816 571.24 400.385
C 570.758 397.599 571.118 394.489 571.145 391.664
C 571.188 387.144 571.059 382.63 571.047 378.114 Z"
opacity="1" fill="rgb(21,65,96)" fill-rule="evenodd" />
<path d="
M 581.953 386.086
C 582.391 384.395 583.134 382.92 584.238 381.565
C 585.641 379.843 587.491 378.335 589.605 377.579
C 598.387 374.441 607.395 383.172 605.099 391.969
C 602.758 400.945 590.645 403.927 584.445 396.871
C 582.976 395.198 582.142 393 581.769 390.827
C 581.492 389.214 581.543 387.667 581.953 386.086 Z
M 584.406 387.599
C 583.451 396.017 593.416 402.048 599.79 395.671
C 600.721 394.739 601.455 393.603 601.955 392.384
C 605.78 383.056 593.268 374.895 586.605 382.763
C 585.435 384.279 584.861 385.759 584.406 387.599 Z"
opacity="1" fill="rgb(18,58,90)" fill-rule="evenodd" />
<path d="
M 612.945 377.321
C 613.908 377.255 615.064 377.073 615.893 377.639
C 618.875 381.661 622.063 385.566 625.195 389.475
C 626.898 391.603 628.984 393.628 630.354 395.987
C 630.734 394.584 630.231 392.477 630.193 390.997
C 630.082 386.613 629.601 381.571 630.285 377.247
C 631.072 377.227 631.835 377.179 632.616 377.285
C 633.466 379.058 632.859 382.051 632.851 383.995
C 632.831 389.434 633.023 394.916 632.817 400.348
C 632.39 400.83 631.173 400.523 630.616 400.384
C 629.388 399.228 628.534 397.693 627.471 396.39
C 623.593 391.641 619.946 386.425 615.763 381.963
C 616.112 386.435 615.846 391.006 615.821 395.493
C 615.815 396.648 616.415 399.715 615.844 400.624
C 614.941 400.653 614.045 400.678 613.151 400.556
C 613.292 392.833 613.203 385.04 612.945 377.321 Z"
opacity="1" fill="rgb(21,62,95)" fill-rule="evenodd" />
<path d="
M 620.898 293.315
C 622.332 292.862 624.012 293.074 625.503 293.052
C 628.665 293.008 631.828 293.016 634.991 293.017
C 645.171 293.021 655.36 293.032 665.538 292.855
C 666.126 295.544 665.132 298.713 665.492 301.462
C 662.553 302.278 658.556 301.587 655.502 301.593
C 647.241 301.607 638.633 300.938 630.411 301.732
C 630.322 305.653 630.29 309.574 630.331 313.496
C 630.347 315.022 629.921 317.164 630.324 318.6
C 637.857 318.154 645.449 318.343 653.003 318.312
C 655.004 318.304 657.005 318.333 659.006 318.304
C 659.863 318.292 661.136 318.021 661.905 318.403
C 661.797 321.082 661.729 323.973 662.034 326.639
C 659.628 327.027 656.933 326.69 654.496 326.708
C 649.33 326.746 644.163 326.741 638.997 326.775
C 636.347 326.793 632.98 326.246 630.457 327.064
C 630.504 332.708 630.601 338.515 630.295 344.15
C 630.835 344.563 631.84 344.261 632.504 344.257
C 634.837 344.244 637.171 344.23 639.505 344.225
C 648.413 344.208 657.344 344.37 666.249 344.186
C 665.996 346.847 665.732 350.599 666.279 353.211
C 657.034 352.89 647.756 353.116 638.506 353.083
C 632.862 353.062 627.039 352.591 621.415 352.99
C 620.626 352.479 621.045 350.197 621.052 349.306
C 621.08 345.703 620.952 342.099 620.948 338.496
C 620.929 323.437 620.695 308.372 620.898 293.315 Z"
opacity="1" fill="rgb(36,78,123)" fill-rule="evenodd" />
<path d="
M 639.792 397.135
C 640.066 396.295 640.597 395.49 641.471 395.244
C 644.718 397.185 647.416 399.086 651.441 398.026
C 653.132 397.581 655.064 396.07 654.876 394.127
C 654.673 392.019 652.444 391.093 650.704 390.597
C 646.605 389.428 639.459 388.588 640.517 382.593
C 641.43 377.419 647.841 376.166 652.088 377.414
C 652.957 377.669 656.453 378.808 656.543 379.769
C 656.277 380.536 656.083 381.372 655.378 381.868
C 653.717 381.33 652.481 380.017 650.703 379.562
C 648.054 378.884 641.066 380.76 643.581 384.818
C 646.383 389.34 656.373 386.314 657.41 392.791
C 658.976 402.575 644.517 402.522 639.792 397.135 Z"
opacity="1" fill="rgb(22,60,91)" fill-rule="evenodd" />

</svg>