<svg version="1.1" xmlns="http://www.w3.org/2000/svg" viewBox="0 0 500 500">
<path d="M0 0 C165 0 330 0 500 0 C500 165 500 330 500 500 C335 500 170 500 0 500 C0 335 0 170 0 0 Z " fill="#FEFEFE" transform="translate(0,0)"/>
<path d="M0 0 C13.13022437 1.31129705 25.41891629 3.91122245 37.9140625 8.30078125 C39.35222296 8.78286126 40.80771925 9.21511423 42.2734375 9.60546875 C50.03640765 11.67810641 56.93038866 15.2657132 64 19 C64.99773437 19.52078125 65.99546875 20.0415625 67.0234375 20.578125 C98.16977666 37.15460803 123.78263286 62.93975827 135.28125 96.76953125 C136.269403 100.16443568 137.15601943 103.56671982 138 107 C138.28617188 108.03898437 138.57234375 109.07796875 138.8671875 110.1484375 C142.25635388 122.70449198 142.18641599 135.23722887 142.18530273 148.15771484 C142.1874737 150.96597825 142.20563842 153.77383779 142.22460938 156.58203125 C142.25908516 167.86758143 141.57239767 178.86265259 140.22122192 190.06304932 C139.77978396 193.92814345 139.5594224 197.8031031 139.375 201.6875 C139.31699219 202.77514648 139.31699219 202.77514648 139.2578125 203.88476562 C139.16748925 205.58961705 139.0829687 207.29477484 139 209 C137.04738663 206.07107994 135.72538829 203.28532383 134.3125 200.06640625 C133.78398437 198.87023682 133.25546875 197.67406738 132.7109375 196.44165039 C132.43217773 195.80889191 132.15341797 195.17613342 131.86621094 194.52420044 C120.16847763 168.0324447 107.17032587 142.4336356 90 119 C89.57041992 118.41347656 89.14083984 117.82695312 88.69824219 117.22265625 C70.14259962 91.92280475 70.14259962 91.92280475 46 73 C46.99948412 74.14628335 47.99963131 75.29198853 49 76.4375 C49.64453125 77.17742187 50.2890625 77.91734375 50.953125 78.6796875 C52.23876241 80.13707036 53.53889847 81.58191977 54.859375 83.0078125 C66.0027071 95.11812797 74.67108931 108.87337061 83 123 C83.46970215 123.78987305 83.9394043 124.57974609 84.42333984 125.39355469 C90.37745311 135.41790221 95.94725152 145.54091665 101.03515625 156.03076172 C102.03596853 158.07341148 103.06109657 160.102181 104.09375 162.12890625 C115 183.5599275 115 183.5599275 115 188 C109.37204476 188.26020929 104.70434475 187.38317534 99.3125 185.8125 C98.11959351 185.46977051 98.11959351 185.46977051 96.90258789 185.12011719 C76.29753272 179.05109051 58.30135373 168.50757336 42.375 154.1875 C41.86541748 153.73133301 41.35583496 153.27516602 40.83081055 152.80517578 C38.24192036 150.41088259 36.30747045 148.29944012 35 145 C34.34 145 33.68 145 33 145 C29.76987024 141.18198662 26.91154442 137.06433866 24 133 C23.15115234 131.82244141 23.15115234 131.82244141 22.28515625 130.62109375 C18.19816855 124.73453057 15.1107609 118.44139233 12 112 C11.68264893 111.39575195 11.36529785 110.79150391 11.03833008 110.16894531 C8.45124242 105.20518236 6.57773504 100.22168315 4.9375 94.875 C4.68000977 94.04387695 4.42251953 93.21275391 4.15722656 92.35644531 C-1.28001126 74.45973222 -3.37366068 56.79537166 -3.25 38.1875 C-3.2478952 37.40095032 -3.24579041 36.61440063 -3.24362183 35.80401611 C-3.15093273 6.30186546 -3.15093273 6.30186546 0 0 Z " fill="#3D648F" transform="translate(92,187)"/>
<path d="M0 0 C4.5886902 1.75369744 9.00087502 3.83675229 13.4375 5.9375 C14.17548828 6.28490234 14.91347656 6.63230469 15.67382812 6.99023438 C19.80935718 8.94220409 23.91849834 10.9366101 28 13 C26.84347232 17.8939382 25.29949252 22.68209937 23.83984375 27.4921875 C23.01787039 30.92535997 22.51848363 33.50292658 23 37 C24.78879717 39.26061712 24.78879717 39.26061712 27.25 41.0625 C30.61369059 43.82231543 33.44241569 46.44162183 36 50 C43.24922108 48.82469461 43.24922108 48.82469461 50.3125 46.875 C53.34340578 45.88819347 55.8317031 45.93881909 59 46 C71.80836447 68.13484346 71.80836447 68.13484346 71 73 C68.734375 75.09765625 68.734375 75.09765625 65.75 77.0625 C62.84458712 79.00328506 60.23241799 80.76636304 57.765625 83.24609375 C56 85 56 85 54 85 C54.2165625 86.50240234 54.2165625 86.50240234 54.4375 88.03515625 C54.62525007 89.37756922 54.81273594 90.72001915 55 92.0625 C55.09539062 92.71927734 55.19078125 93.37605469 55.2890625 94.05273438 C55.88887674 98.40138763 56.09127093 102.61329071 56 107 C57.216875 107.391875 58.43375 107.78375 59.6875 108.1875 C65.87309974 110.24277915 71.93090361 112.62676756 78 115 C78.59036312 122.29754413 77.57915338 129.01552068 76.0625 136.125 C75.88041992 136.97876221 75.69833984 137.83252441 75.51074219 138.7121582 C74.14532557 144.85467443 74.14532557 144.85467443 73 146 C67.65581314 146.99378247 62.48621475 147.12291842 57.0625 147.0625 C56.28326172 147.05798828 55.50402344 147.05347656 54.70117188 147.04882812 C52.80074732 147.03716908 50.90036294 147.01923877 49 147 C48.84144531 147.556875 48.68289063 148.11375 48.51953125 148.6875 C46.95780311 153.79547269 45.04285485 157.8550524 41.890625 162.17578125 C40.82912062 163.94761594 40.82912062 163.94761594 41.1796875 165.890625 C42.21038209 168.54098252 43.4900089 170.95347368 44.875 173.4375 C45.38804687 174.36433594 45.90109375 175.29117188 46.4296875 176.24609375 C47.47365289 178.07692858 48.56263195 179.88283954 49.6953125 181.66015625 C51 184 51 184 51 187 C49.671875 188.4375 49.671875 188.4375 47.75 190 C45.05765915 192.22682024 42.46439447 194.49046719 39.97265625 196.9375 C39.45026367 197.4428125 38.92787109 197.948125 38.38964844 198.46875 C37.3495518 199.47857757 36.31989791 200.499289 35.30175781 201.53125 C31.68300129 204.99371471 31.68300129 204.99371471 28.453125 205.0234375 C25.63917258 203.84946372 23.39764916 202.42733493 20.9375 200.625 C20.10089844 200.01914062 19.26429688 199.41328125 18.40234375 198.7890625 C16 197 16 197 14.06640625 195.2109375 C11.05823312 193.44811393 9.32569388 194.15934988 6 195 C4.90300781 195.23332031 3.80601562 195.46664062 2.67578125 195.70703125 C-1.33158652 197.02420323 -3.85753075 198.14320978 -7 201 C-9.23929808 206.66314326 -9.5273446 212.88801342 -9.81738281 218.91870117 C-10 221 -10 221 -11 224 C-13.26939154 224.34301195 -15.54062688 224.67382878 -17.8125 225 C-19.07707031 225.185625 -20.34164063 225.37125 -21.64453125 225.5625 C-26.7394588 226.07427748 -31.87943333 226 -37 226 C-37 211.15 -37 196.3 -37 181 C-30.565 180.01 -30.565 180.01 -24 179 C-13.71146799 177.04027962 -3.47869797 172.90585263 4.546875 166.1015625 C6 165 6 165 8 165 C8 164.34 8 163.68 8 163 C8.66 163 9.32 163 10 163 C10 162.34 10 161.68 10 161 C10.66 161 11.32 161 12 161 C12 160.34 12 159.68 12 159 C12.66 159 13.32 159 14 159 C14.26039063 158.44828125 14.52078125 157.8965625 14.7890625 157.328125 C16.65551421 153.73972106 18.93130182 150.42629766 21.1484375 147.046875 C29.91119983 132.62713952 33.57592251 115.00358744 30.26953125 98.3125 C29.3268391 94.80337658 28.23440931 91.41681269 27 88 C26.62617188 86.95972656 26.25234375 85.91945313 25.8671875 84.84765625 C18.01854472 64.65429386 4.52419928 52.86723961 -15.00390625 44.21875 C-22.43803835 41.19469627 -28.74416756 40.75053022 -37 40 C-37 30.43 -37 20.86 -37 11 C-36.34 11 -35.68 11 -35 11 C-34.67 11.66 -34.34 12.32 -34 13 C-31.23166678 13.66160072 -31.23166678 13.66160072 -27.9375 14.0625 C-26.83277344 14.21847656 -25.72804687 14.37445313 -24.58984375 14.53515625 C-22.81287109 14.76525391 -22.81287109 14.76525391 -21 15 C-20.33613281 15.16516113 -19.67226563 15.33032227 -18.98828125 15.50048828 C-16.64352836 16.08458726 -16.64352836 16.08458726 -13 16 C-10.4960787 14.32535046 -8.88775554 12.16619078 -7.125 9.75 C-6.65320313 9.15058594 -6.18140625 8.55117187 -5.6953125 7.93359375 C-3.68473818 5.35754541 -1.81252344 2.71878516 0 0 Z " fill="#1E2736" transform="translate(281,165)"/>
<path d="M0 0 C-0.99 1.485 -0.99 1.485 -2 3 C-2.15624933 5.03045191 -2.15624933 5.03045191 -1 7 C1.0442062 8.48451871 3.01100751 9.74287046 5.1875 11 C13.18697442 15.87886281 20.10364352 21.68272688 27 28 C28.2684375 29.16015625 28.2684375 29.16015625 29.5625 30.34375 C36.36767685 36.86537782 42.06352782 44.32708288 47.07421875 52.30078125 C48.78183316 55.25428585 48.78183316 55.25428585 52 56 C52.2503577 52.62535976 52.2503577 52.62535976 52 49 C51.01979625 47.9805881 50.02196992 46.97753644 49 46 C49.13863004 43.22739911 49.70074552 41.49875746 51.125 39.125 C54.09826694 37.34103984 56.69416995 38.40967321 60 39 C60.99 38.67 61.98 38.34 63 38 C63 35.36 63 32.72 63 30 C65.90600261 28.74335022 67.79604584 28 71 28 C71.4125 28.804375 71.825 29.60875 72.25 30.4375 C73.84985553 33.4084131 73.84985553 33.4084131 77.6875 33.8125 C79.3271875 33.9053125 79.3271875 33.9053125 81 34 C81.33 32.68 81.66 31.36 82 30 C84.3125 29.375 84.3125 29.375 87 29 C87.99 29.66 88.98 30.32 90 31 C90.40843923 33.71203652 90.13336867 36.2437142 90 39 C90.66 39 91.32 39 92 39 C92 39.66 92 40.32 92 41 C94.64 40.67 97.28 40.34 100 40 C102.29379749 43.44069624 103 44.72290301 103 49 C102.01 49.66 101.02 50.32 100 51 C99.74984127 54.58357241 99.74984127 54.58357241 100 58 C101.32 58.66 102.64 59.32 104 60 C104.125 65.75 104.125 65.75 103 68 C101.5459375 68.2165625 101.5459375 68.2165625 100.0625 68.4375 C98.5465625 68.7159375 98.5465625 68.7159375 97 69 C94.76448241 72.35327639 94.82716472 72.90743657 95.375 76.6875 C95.48585938 77.49574219 95.59671875 78.30398437 95.7109375 79.13671875 C95.80632812 79.75160156 95.90171875 80.36648437 96 81 C93.1875 82.125 93.1875 82.125 90 83 C88.515 82.01 88.515 82.01 87 81 C84.94290404 80.75944532 84.94290404 80.75944532 82.8125 80.875 C81.554375 80.91625 80.29625 80.9575 79 81 C78.7834375 82.2065625 78.7834375 82.2065625 78.5625 83.4375 C78 86 78 86 77 87 C74.66702567 87.04092937 72.33294775 87.04241723 70 87 C69.62875 85.576875 69.62875 85.576875 69.25 84.125 C68.28586015 81.03594148 68.28586015 81.03594148 66.375 79.5625 C63.88388209 78.97249839 62.38207657 79.13211376 59.875 79.5 C58.59625 79.665 57.3175 79.83 56 80 C54 78 54 78 53.8046875 75.6171875 C53.82789063 74.71226562 53.85109375 73.80734375 53.875 72.875 C53.89304687 71.96492188 53.91109375 71.05484375 53.9296875 70.1171875 C53.95289063 69.41851562 53.97609375 68.71984375 54 68 C52.906875 67.67 51.81375 67.34 50.6875 67 C48.33276066 66.00703763 47.25166866 65.45775953 46.0078125 63.1953125 C45.54120518 61.80597609 45.09868797 60.40833376 44.6796875 59.00390625 C43.4744783 55.45061707 41.35419095 52.67709548 38 51 C38 50.34 38 49.68 38 49 C37.45601563 48.76667969 36.91203125 48.53335938 36.3515625 48.29296875 C33.34561775 46.64019846 30.97369407 44.55121666 28.375 42.3125 C10.33239708 26.28467562 10.33239708 26.28467562 -11 18 C-12.6446674 20.46326712 -12.6446674 20.46326712 -14 23 C-17.38944685 21.30527657 -18.44510619 17.53686827 -20.0625 14.25 C-20.60874023 13.17492187 -20.60874023 13.17492187 -21.16601562 12.078125 C-22.99150185 8.40690685 -24.47328901 5.11644899 -25 1 C-20.28477879 0.12653673 -15.59288064 -0.32540011 -10.8125 -0.625 C-9.74612305 -0.70234375 -9.74612305 -0.70234375 -8.65820312 -0.78125 C-5.4289623 -0.9878242 -3.10124436 -1.03374812 0 0 Z " fill="#44638B" transform="translate(281,121)"/>
<path d="M0 0 C6.93 0 13.86 0 21 0 C21 44.55 21 89.1 21 135 C19.35 133.35 17.7 131.7 16 130 C14.70546286 128.96013605 13.39519819 127.93940366 12.06665039 126.94335938 C5.60490635 121.69409126 0.03835088 116.66713695 -1.41064453 108.1640625 C-2.04688613 101.27169521 -1.8039113 94.40699792 -1.5625 87.5 C-1.53260019 84.96703288 -1.50985212 82.43397224 -1.49389648 79.90087891 C-1.43942132 73.95644229 -1.31386703 68.01631506 -1.15230465 62.07407951 C-0.97216008 55.29822511 -0.88517709 48.52211412 -0.80517769 41.74445343 C-0.63885379 27.82649047 -0.34600182 13.91459629 0 0 Z " fill="#325179" transform="translate(196,106)"/>
<path d="M0 0 C14.19248915 -0.19085254 23.40483883 3.99968989 33.7109375 13.68359375 C44.5207001 24.62248321 48.26531366 36.35766219 48.24658203 51.36303711 C48.16296575 57.70470222 47.69837948 63.18258111 45 69 C44.41412109 70.32837891 44.41412109 70.32837891 43.81640625 71.68359375 C38.41080279 82.72450054 29.43902435 91.78361713 17.89453125 96.18359375 C11.38502776 98.34843438 7.10589261 99 0 99 C0 93.06 0 87.12 0 81 C1.815 80.443125 3.63 79.88625 5.5 79.3125 C16.39062836 75.62249886 21.680917 71.23070535 27.03515625 61.02734375 C30.29799024 53.63664535 29.87307487 45.89217696 27.4375 38.3125 C23.94360048 29.77861999 18.79609735 24.70835207 10.44140625 20.89453125 C7.25046921 19.72537192 4.37744226 19.28744189 1 19 C0 18 0 18 -0.11352539 16.23413086 C-0.10828857 15.48526611 -0.10305176 14.73640137 -0.09765625 13.96484375 C-0.09443359 13.15595703 -0.09121094 12.34707031 -0.08789062 11.51367188 C-0.07951172 10.66353516 -0.07113281 9.81339844 -0.0625 8.9375 C-0.05798828 8.08349609 -0.05347656 7.22949219 -0.04882812 6.34960938 C-0.03700373 4.23304337 -0.01906769 2.11651315 0 0 Z " fill="#212837" transform="translate(244,226)"/>
<path d="M0 0 C2.8125 0.0625 2.8125 0.0625 6 1 C7.06902939 3.30252483 8.07175817 5.6372026 9 8 C11.43616806 9.25737706 12.58067172 9.08153606 15.25 8.5625 C16.11625 8.2840625 16.11625 8.2840625 17 8 C19.0625 9.875 19.0625 9.875 21 13 C21.0571754 16.40453547 20.59785505 19.65331142 20 23 C20.825 23.33 21.65 23.66 22.5 24 C25 26 25 26 25.33203125 27.98046875 C25.31424822 29.98995058 25.16416751 31.9971564 25 34 C23.02 34.66 21.04 35.32 19 36 C18.10947383 39.11684158 17.79611529 40.53559593 19.125 43.5625 C20 46 20 46 19.1875 48.375 C16.4892544 50.37941101 15.57547282 50.11026514 12.3125 49.75 C10.87163335 49.52019671 9.43267304 49.27632268 8 49 C7.525625 50.134375 7.05125 51.26875 6.5625 52.4375 C5 56 5 56 4 57 C2.00041636 57.04080783 -0.00045254 57.04254356 -2 57 C-2.37125 56.030625 -2.7425 55.06125 -3.125 54.0625 C-4.71052362 50.68859031 -4.71052362 50.68859031 -8.1875 50.125 C-9.115625 50.08375 -10.04375 50.0425 -11 50 C-11.66 51.32 -12.32 52.64 -13 54 C-15.96175123 53.38722388 -17.38058783 52.74627478 -20 51 C-19.91621094 50.36191406 -19.83242188 49.72382813 -19.74609375 49.06640625 C-19.64425781 48.24011719 -19.54242188 47.41382813 -19.4375 46.5625 C-19.33308594 45.73878906 -19.22867187 44.91507813 -19.12109375 44.06640625 C-19.08113281 43.38449219 -19.04117187 42.70257813 -19 42 C-20.17204956 40.61455564 -20.17204956 40.61455564 -23.4375 40.6875 C-27 40 -27 40 -28.4375 38.25 C-29.06272383 35.74910469 -29.14268336 33.56830044 -29 31 C-27.35 30.67 -25.7 30.34 -24 30 C-24.26393501 26.56769552 -24.26393501 26.56769552 -25 23 C-25.99 22.34 -26.98 21.68 -28 21 C-27.125 15.25 -27.125 15.25 -26 13 C-24.88625 13.020625 -23.7725 13.04125 -22.625 13.0625 C-19.16784079 13.26380718 -19.16784079 13.26380718 -17 12 C-17 9.36 -17 6.72 -17 4 C-14.7252187 2.61888278 -13.49828639 1.94305298 -10.8125 2.25 C-9 3 -9 3 -8 5 C-5.69 5 -3.38 5 -1 5 C-0.67 3.35 -0.34 1.7 0 0 Z " fill="#47668C" transform="translate(382,210)"/>
<path d="M0 0 C6.93 0 13.86 0 21 0 C21 25.74 21 51.48 21 78 C17.37293333 76.18646666 13.94366108 74.19038581 10.5 72.0625 C9.3759375 71.37285156 8.251875 70.68320313 7.09375 69.97265625 C6.0728125 69.32167969 5.051875 68.67070312 4 68 C3.28555725 67.59440353 2.5711145 67.18880707 1.83502197 66.7709198 C0 65 0 65 -0.48101807 62.17158508 C-0.47213562 61.0235289 -0.46325317 59.87547272 -0.45410156 58.69262695 C-0.45379944 57.39150467 -0.45349731 56.09038239 -0.45318604 54.74983215 C-0.43275932 53.32930898 -0.41189533 51.90879204 -0.390625 50.48828125 C-0.38316369 49.0352608 -0.37747024 47.58223028 -0.37347412 46.12919617 C-0.35820878 42.30667285 -0.3189202 38.48475847 -0.2746582 34.66247559 C-0.23372432 30.76139565 -0.21546719 26.86021722 -0.1953125 22.95898438 C-0.15242578 15.30567996 -0.08206974 7.65300291 0 0 Z " fill="#496B93" transform="translate(167,134)"/>
<path d="M0 0 C4.0397878 1.2213312 7.56375142 2.51826491 11 5 C11.30292969 5.62648438 11.60585937 6.25296875 11.91796875 6.8984375 C13.15972979 9.31023332 14.48408535 10.5200872 16.5625 12.25 C17.62984375 13.15685547 17.62984375 13.15685547 18.71875 14.08203125 C19.4715625 14.71496094 20.224375 15.34789062 21 16 C26.15093734 20.40122899 30.89844209 24.84214645 35.26953125 30.0234375 C37.00714603 32.00816229 38.84133646 33.80538162 40.75 35.625 C54.75825603 49.49830173 65.71122917 66.96374466 75.00976562 84.22802734 C75.91019668 85.83930165 76.89633884 87.40191839 77.890625 88.95703125 C82.54883449 96.39057584 82.6192403 102.38296602 82 111 C81.91508342 112.557137 81.83317878 114.11444047 81.75390625 115.671875 C81.53732424 119.78396635 81.27853148 123.89166073 81 128 C79.04738663 125.07107994 77.72538829 122.28532383 76.3125 119.06640625 C75.51972656 117.2721521 75.51972656 117.2721521 74.7109375 115.44165039 C74.29279785 114.49251266 74.29279785 114.49251266 73.86621094 113.52420044 C62.16847763 87.0324447 49.17032587 61.4336356 32 38 C31.57041992 37.41347656 31.14083984 36.82695312 30.69824219 36.22265625 C22.28694657 24.87277877 12.69511664 14.47660867 2.55078125 4.65625 C0 2 0 2 0 0 Z " fill="#1F2A3B" transform="translate(150,268)"/>
<path d="M0 0 C2.64 0 5.28 0 8 0 C8 36.3 8 72.6 8 110 C6.68 108.35 5.36 106.7 4 105 C3.26686584 104.10836151 2.53373169 103.21672302 1.77838135 102.29806519 C-0.63322105 97.82567127 -0.53365182 94.23234526 -0.45410156 89.23095703 C-0.45468567 88.26447739 -0.45526978 87.29799774 -0.45587158 86.30223083 C-0.45309374 83.12038764 -0.42201521 79.93949124 -0.390625 76.7578125 C-0.38316156 74.54678865 -0.37746912 72.33575818 -0.37347412 70.12472534 C-0.35822601 64.31475454 -0.3189508 58.50518584 -0.2746582 52.69537354 C-0.23368804 46.76311685 -0.21545935 40.83079499 -0.1953125 34.8984375 C-0.15245615 23.26544866 -0.0842144 11.63275781 0 0 Z " fill="#3B5F8A" transform="translate(226,154)"/>
<path d="M0 0 C-0.99 1.485 -0.99 1.485 -2 3 C-2.15624933 5.03045191 -2.15624933 5.03045191 -1 7 C1.04419159 8.48450809 3.01090902 9.74305859 5.1875 11 C13.19017391 15.87353616 20.08386012 21.70864708 27 28 C27.79148437 28.70769531 28.58296875 29.41539062 29.3984375 30.14453125 C32.15762425 32.72915721 33.77431649 34.29285834 34.9375 37.9375 C34.958125 38.618125 34.97875 39.29875 35 40 C32.9375 41.25 32.9375 41.25 30 42 C24.47914964 39.57082584 19.87223328 35.72251312 15.03515625 32.15625 C2.95033802 22.76095698 2.95033802 22.76095698 -11 18 C-12.6446674 20.46326712 -12.6446674 20.46326712 -14 23 C-17.38944685 21.30527657 -18.44510619 17.53686827 -20.0625 14.25 C-20.60874023 13.17492187 -20.60874023 13.17492187 -21.16601562 12.078125 C-22.99150185 8.40690685 -24.47328901 5.11644899 -25 1 C-20.28477879 0.12653673 -15.59288064 -0.32540011 -10.8125 -0.625 C-9.74612305 -0.70234375 -9.74612305 -0.70234375 -8.65820312 -0.78125 C-5.4289623 -0.9878242 -3.10124436 -1.03374812 0 0 Z " fill="#44638B" transform="translate(281,121)"/>
<path d="M0 0 C4.66892185 3.90886481 6.44955502 6.87055025 7.0625 13 C6.99093599 17.85740713 5.07488777 20.87154993 1.6875 24.25 C-2.77479498 27.32402543 -7.01920685 28.19220618 -12.3125 27.25 C-17.10928945 24.85160527 -19.94933712 22.06721665 -22.3125 17.25 C-23.15723563 12.44879849 -22.81777468 9.19085631 -20.5 4.875 C-19.778125 4.00875 -19.05625 3.1425 -18.3125 2.25 C-17.8175 1.651875 -17.3225 1.05375 -16.8125 0.4375 C-12.05023693 -3.33262493 -5.04698097 -2.66632957 0 0 Z " fill="#F9F9FA" transform="translate(364.3125,165.75)"/>
<path d="M0 0 C3.23356015 1.21258505 4.00856305 2.01284458 6 5 C5.9765625 7.48046875 5.9765625 7.48046875 5.625 10.1875 C5.45871094 11.53908203 5.45871094 11.53908203 5.2890625 12.91796875 C5.14597656 13.94857422 5.14597656 13.94857422 5 15 C6.2375 15.495 6.2375 15.495 7.5 16 C10 18 10 18 10.33203125 19.98046875 C10.31424822 21.98995058 10.16416751 23.9971564 10 26 C8.02 26.66 6.04 27.32 4 28 C3.10947383 31.11684158 2.79611529 32.53559593 4.125 35.5625 C5 38 5 38 4.1875 40.375 C1.4892544 42.37941101 0.57547282 42.11026514 -2.6875 41.75 C-4.12836665 41.52019671 -5.56732696 41.27632268 -7 41 C-7.474375 42.134375 -7.94875 43.26875 -8.4375 44.4375 C-10 48 -10 48 -11 49 C-12.99958364 49.04080783 -15.00045254 49.04254356 -17 49 C-17.25394531 48.44570313 -17.50789063 47.89140625 -17.76953125 47.3203125 C-18.11371094 46.59585938 -18.45789063 45.87140625 -18.8125 45.125 C-19.14894531 44.40570313 -19.48539062 43.68640625 -19.83203125 42.9453125 C-20.99467097 40.69457194 -20.99467097 40.69457194 -24 39 C-23.34 37.35 -22.68 35.7 -22 34 C-21.33613281 33.98582031 -20.67226563 33.97164062 -19.98828125 33.95703125 C-14.01708307 33.65303789 -14.01708307 33.65303789 -9 30.5625 C-8.34 29.716875 -7.68 28.87125 -7 28 C-6.34 27.34 -5.68 26.68 -5 26 C-4.71768617 23.2718044 -4.71768617 23.2718044 -4.8125 20.1875 C-4.81894531 19.14980469 -4.82539063 18.11210937 -4.83203125 17.04296875 C-4.98578832 14.25746272 -5.4436467 11.72518818 -6 9 C-5.5625 6.6875 -5.5625 6.6875 -5 5 C-6.32 4.67 -7.64 4.34 -9 4 C-8.67 3.01 -8.34 2.02 -8 1 C-7.05125 1.020625 -6.1025 1.04125 -5.125 1.0625 C-2.09333717 1.22551826 -2.09333717 1.22551826 0 0 Z " fill="#456389" transform="translate(397,218)"/>
<path d="M0 0 C2.15663644 1.7711507 3.862137 3.443024 5.1171875 5.953125 C6.05304255 16.33958182 6.05304255 16.33958182 3.3046875 21.078125 C-1.31910085 25.04137216 -4.21894454 25.44967992 -10.1484375 25.33203125 C-14.53651042 24.72396972 -16.02564217 23.32312078 -18.8828125 19.953125 C-21.26009356 15.30192292 -21.41546176 10.89493638 -19.8828125 5.953125 C-18.18383649 3.01795377 -16.31929687 0.43590222 -12.98828125 -0.68359375 C-4.0142488 -2.23198896 -4.0142488 -2.23198896 0 0 Z " fill="#FAFBFB" transform="translate(387.8828125,226.046875)"/>
<path d="M0 0 C6.93 0 13.86 0 21 0 C21 9.57 21 19.14 21 29 C17.33801541 28.08450385 14.01569212 26.92120212 10.5 25.5625 C8.81390625 24.91474609 8.81390625 24.91474609 7.09375 24.25390625 C4 23 4 23 0 21 C0 14.07 0 7.14 0 0 Z " fill="#46678E" transform="translate(137,165)"/>
<path d="M0 0 C2.64 0 5.28 0 8 0 C8 36.3 8 72.6 8 110 C4 105 4 105 3 103 C3.99 103 4.98 103 6 103 C6.33 69.34 6.66 35.68 7 1 C5.02 1 3.04 1 1 1 C1 33.34 1 65.68 1 99 C0.67 99 0.34 99 0 99 C0 66.33 0 33.66 0 0 Z " fill="#55708F" transform="translate(226,154)"/>
<path d="M0 0 C6.93 0 13.86 0 21 0 C21 25.74 21 51.48 21 78 C17.63688425 76.31844212 14.50226486 74.5427946 11.3125 72.5625 C9.85263672 71.66724609 9.85263672 71.66724609 8.36328125 70.75390625 C6 69 6 69 5 66 C6.9375 66.375 6.9375 66.375 9 67 C9.33 67.66 9.66 68.32 10 69 C12.32024404 70.01453953 12.32024404 70.01453953 15 70 C17.88058828 67.85239171 18.89020336 66.62382517 19.51898193 63.05133057 C19.52786438 61.905495 19.53674683 60.75965942 19.54589844 59.57910156 C19.56561707 58.27805481 19.58533569 56.97700806 19.60565186 55.63653564 C19.6073149 54.22123253 19.60854583 52.80592885 19.609375 51.390625 C19.62435872 49.93900711 19.64108629 48.48740626 19.65948486 47.03582764 C19.70314998 43.22181409 19.72315529 39.40803049 19.73822021 35.59381104 C19.75779458 31.69912117 19.79976412 27.80467953 19.83984375 23.91015625 C19.91513686 16.27347287 19.96336269 8.63698459 20 1 C13.73 1 7.46 1 1 1 C1 22.12 1 43.24 1 65 C0.67 65 0.34 65 0 65 C0 43.55 0 22.1 0 0 Z " fill="#6B809A" transform="translate(167,134)"/>
<path d="M0 0 C4.0397878 1.2213312 7.56375142 2.51826491 11 5 C11.30292969 5.62648438 11.60585937 6.25296875 11.91796875 6.8984375 C13.15972979 9.31023332 14.48408535 10.5200872 16.5625 12.25 C17.62791016 13.15492188 17.62791016 13.15492188 18.71484375 14.078125 C19.46894531 14.71234375 20.22304687 15.3465625 21 16 C26.47843112 20.69315853 31.44632428 25.39547604 36 31 C35.01 31 34.02 31 33 31 C30.82967524 32.43990623 30.82967524 32.43990623 29 34 C28.51273438 33.37996094 28.02546875 32.75992188 27.5234375 32.12109375 C19.79422839 22.46660892 11.46334476 13.27824532 2.57421875 4.67578125 C0 2 0 2 0 0 Z " fill="#233244" transform="translate(150,268)"/>
<path d="M0 0 C4.21814817 3.9700218 7.61227103 8.30840284 11 13 C9.1875 14.5625 9.1875 14.5625 7 16 C6.01 15.67 5.02 15.34 4 15 C4 14.34 4 13.68 4 13 C3.46375 12.773125 2.9275 12.54625 2.375 12.3125 C-0.78500863 10.56617944 -3.2676983 8.3597151 -6 6 C-5.38125 5.71125 -4.7625 5.4225 -4.125 5.125 C-1.86674235 4.06279958 -1.86674235 4.06279958 0 2 C0 1.34 0 0.68 0 0 Z " fill="#526C8D" transform="translate(315,157)"/>
<path d="M0 0 C4.0397878 1.2213312 7.56375142 2.51826491 11 5 C11.70151152 6.3153341 12.36525925 7.65117592 13 9 C13.86625 9.825 14.7325 10.65 15.625 11.5 C18 14 18 14 18 18 C17.67 18.66 17.34 19.32 17 20 C16.443125 19.3709375 15.88625 18.741875 15.3125 18.09375 C10.84104807 13.07847284 6.30279678 8.22566243 1.43359375 3.59375 C0 2 0 2 0 0 Z " fill="#2D3B4E" transform="translate(150,268)"/>
<path d="M0 0 C1.32 0.66 2.64 1.32 4 2 C6.58532701 2.45064632 6.58532701 2.45064632 9.25 2.625 C10.14203125 2.69976562 11.0340625 2.77453125 11.953125 2.8515625 C12.96632813 2.92503906 12.96632813 2.92503906 14 3 C14 3.33 14 3.66 14 4 C12.01432292 4.22786458 10.02864583 4.45572917 8.04296875 4.68359375 C5.80603607 4.97170735 5.80603607 4.97170735 3 6 C3.33 7.32 3.66 8.64 4 10 C4.66 10 5.32 10 6 10 C6 10.66 6 11.32 6 12 C4.02 12 2.04 12 0 12 C-0.66 13.32 -1.32 14.64 -2 16 C-3.9375 15.625 -3.9375 15.625 -6 15 C-6.33 14.34 -6.66 13.68 -7 13 C-6.071875 12.87625 -6.071875 12.87625 -5.125 12.75 C-2.81562433 12.18741541 -2.81562433 12.18741541 -1.75 9.9375 C-1.5025 9.298125 -1.255 8.65875 -1 8 C-0.34 8.33 0.32 8.66 1 9 C0.67 6.03 0.34 3.06 0 0 Z " fill="#536F92" transform="translate(371,248)"/>
<path d="M0 0 C2.09862498 2.89810116 2 4.28378861 2 8 C1.05125 7.814375 0.1025 7.62875 -0.875 7.4375 C-3.89868793 6.71313368 -3.89868793 6.71313368 -6 8 C-6.66 7.67 -7.32 7.34 -8 7 C-8.625 4.9375 -8.625 4.9375 -9 3 C-8.34 3 -7.68 3 -7 3 C-7.33 2.01 -7.66 1.02 -8 0 C-4.66411172 -1.11196276 -3.29427581 -1.09809194 0 0 Z " fill="#4D6A91" transform="translate(382,162)"/>
<path d="M0 0 C0.66 0 1.32 0 2 0 C2.91058531 3.07322544 3.08886184 5.80097361 3 9 C2.34 9 1.68 9 1 9 C0.34 10.32 -0.32 11.64 -1 13 C-2.32 12.67 -3.64 12.34 -5 12 C-4.34 9.03 -3.68 6.06 -3 3 C-2.34 3 -1.68 3 -1 3 C-0.67 2.01 -0.34 1.02 0 0 Z " fill="#375C87" transform="translate(369,248)"/>
<path d="M0 0 C1.9375 0.375 1.9375 0.375 4 1 C4.33 1.66 4.66 2.32 5 3 C7.27566639 4.02302257 7.27566639 4.02302257 10 4 C12.81099414 2.1687189 12.81099414 2.1687189 15 0 C15 3.63 15 7.26 15 11 C11.27605345 9.51042138 8.52198207 8.2200318 5.25 6.0625 C4.47140625 5.55847656 3.6928125 5.05445313 2.890625 4.53515625 C1 3 1 3 0 0 Z " fill="#4F7095" transform="translate(172,200)"/>
<path d="M0 0 C4.0357846 1.22012093 7.55406335 2.53861668 11 5 C11.33 5.99 11.66 6.98 12 8 C10.68 7.67 9.36 7.34 8 7 C7.67 7.66 7.34 8.32 7 9 C5.82737096 7.88121617 4.66204862 6.75476949 3.5 5.625 C2.8503125 4.99851562 2.200625 4.37203125 1.53125 3.7265625 C0 2 0 2 0 0 Z " fill="#33485F" transform="translate(150,268)"/>
<path d="M0 0 C3.47775179 1.51553404 5.9557984 3.5773456 8.75 6.125 C9.94882813 7.21167969 9.94882813 7.21167969 11.171875 8.3203125 C11.77515625 8.87460937 12.3784375 9.42890625 13 10 C12.01 10.66 11.02 11.32 10 12 C8.32737283 10.38113585 6.66204463 8.7547271 5 7.125 C4.071875 6.22007812 3.14375 5.31515625 2.1875 4.3828125 C0 2 0 2 0 0 Z " fill="#D3DAE2" transform="translate(138,260)"/>
<path d="M0 0 C1.65 0.33 3.3 0.66 5 1 C4.79375 1.61875 4.5875 2.2375 4.375 2.875 C4.25125 3.57625 4.1275 4.2775 4 5 C4.66 5.66 5.32 6.32 6 7 C6 7.66 6 8.32 6 9 C0.25 7.25 0.25 7.25 -2 5 C-1.34 3.35 -0.68 1.7 0 0 Z " fill="#375A82" transform="translate(375,252)"/>
<path d="M0 0 C0.55171875 0.31710938 1.1034375 0.63421875 1.671875 0.9609375 C4.28477989 2.12709975 6.40579002 2.40045711 9.25 2.625 C10.14203125 2.69976562 11.0340625 2.77453125 11.953125 2.8515625 C12.96632813 2.92503906 12.96632813 2.92503906 14 3 C14 3.33 14 3.66 14 4 C12.7625 4.144375 11.525 4.28875 10.25 4.4375 C6.05868561 4.91718211 6.05868561 4.91718211 2 6 C1.67 6.66 1.34 7.32 1 8 C0.67 5.36 0.34 2.72 0 0 Z " fill="#5D7596" transform="translate(371,248)"/>
<path d="M0 0 C4.875 4.625 4.875 4.625 6 8 C3.625 9.0625 3.625 9.0625 1 10 C0.34 9.67 -0.32 9.34 -1 9 C-1 7 -1 7 1 5 C0.67958603 2.39719432 0.67958603 2.39719432 0 0 Z " fill="#587393" transform="translate(320,163)"/>
<path d="M0 0 C3.375 -0.125 3.375 -0.125 7 0 C9 2 9 2 9 6 C4.58763974 6 3.21615077 3.9302707 0 1 C0 0.67 0 0.34 0 0 Z " fill="#59769A" transform="translate(140,345)"/>
<path d="M0 0 C0.99 0.33 1.98 0.66 3 1 C3.33 2.65 3.66 4.3 4 6 C1.625 7.0625 1.625 7.0625 -1 8 C-1.66 7.67 -2.32 7.34 -3 7 C-2.1654738 4.49642139 -1.20628008 2.33214148 0 0 Z " fill="#3E5D83" transform="translate(312,155)"/>
<path d="M0 0 C3.25543229 0.34879632 4.01873107 1.02133261 6.25 3.5625 C6.8275 4.366875 7.405 5.17125 8 6 C6.1875 6.6875 6.1875 6.6875 4 7 C1.81974318 5.4657452 1.11209475 4.35666511 0.3125 1.8125 C0.209375 1.214375 0.10625 0.61625 0 0 Z " fill="#17293C" transform="translate(166,282)"/>
<path d="M0 0 C0.33 0 0.66 0 1 0 C1 5.28 1 10.56 1 16 C-3 11 -3 11 -4 9 C-3.01 9 -2.02 9 -1 9 C-0.67 6.03 -0.34 3.06 0 0 Z " fill="#607793" transform="translate(233,248)"/>
<path d="M0 0 C4.67105792 1.55701931 8.08705685 4.08447373 12 7 C9.50907189 8.24546405 8.58919267 7.7767578 6 7 C6 6.01 6 5.02 6 4 C3.03 3.505 3.03 3.505 0 3 C0 2.01 0 1.02 0 0 Z " fill="#5A7491" transform="translate(164,211)"/>
<path d="M0 0 C1.9375 0.375 1.9375 0.375 4 1 C4.33 1.66 4.66 2.32 5 3 C5.825 3.28875 6.65 3.5775 7.5 3.875 C8.325 4.24625 9.15 4.6175 10 5 C10.65625 7.0703125 10.65625 7.0703125 11 9 C9.34793553 8.07352464 7.7035003 7.13343426 6.0625 6.1875 C5.14597656 5.66542969 4.22945312 5.14335937 3.28515625 4.60546875 C1 3 1 3 0 0 Z " fill="#70839D" transform="translate(172,200)"/>
<path d="M0 0 C2.125 0.9375 2.125 0.9375 4 2 C4 2.99 4 3.98 4 5 C3.34 4.67 2.68 4.34 2 4 C2.33 5.32 2.66 6.64 3 8 C1.29115995 6.37660195 -0.37446717 4.70680947 -2 3 C-2 2.34 -2 1.68 -2 1 C-1.34 0.67 -0.68 0.34 0 0 Z " fill="#516B89" transform="translate(324,171)"/>
<path d="M0 0 C0.66 0 1.32 0 2 0 C0.61811547 3.21043882 -0.92421903 5.04936365 -3.625 7.25 C-4.57246094 8.03117187 -4.57246094 8.03117187 -5.5390625 8.828125 C-6.02117187 9.21484375 -6.50328125 9.6015625 -7 10 C-7.66 9.67 -8.32 9.34 -9 9 C-7.625 7.5 -7.625 7.5 -6 6 C-5.34 6 -4.68 6 -4 6 C-4 5.34 -4 4.68 -4 4 C-3.34 4 -2.68 4 -2 4 C-2 3.34 -2 2.68 -2 2 C-1.34 2 -0.68 2 0 2 C0 1.34 0 0.68 0 0 Z " fill="#393E49" transform="translate(293,324)"/>
<path d="M0 0 C0.33 0 0.66 0 1 0 C1 1.65 1 3.3 1 5 C-0.98 5.66 -2.96 6.32 -5 7 C-5.99 6.01 -6.98 5.02 -8 4 C-6.865625 3.71125 -5.73125 3.4225 -4.5625 3.125 C-3.386875 2.75375 -2.21125 2.3825 -1 2 C-0.67 1.34 -0.34 0.68 0 0 Z " fill="#5C718C" transform="translate(376,197)"/>
<path d="M0 0 C0.99 0 1.98 0 3 0 C3.125 5.75 3.125 5.75 2 8 C0.35 8 -1.3 8 -3 8 C-1.68 7.34 -0.36 6.68 1 6 C0.67 4.02 0.34 2.04 0 0 Z " fill="#5A708E" transform="translate(382,181)"/>
<path d="M0 0 C2 3 2 3 2 5 C-4.625 5.25 -4.625 5.25 -8 3 C-5.03 3.495 -5.03 3.495 -2 4 C-2 3.34 -2 2.68 -2 2 C-1.34 2 -0.68 2 0 2 C0 1.34 0 0.68 0 0 Z " fill="#69819B" transform="translate(205,370)"/>
<path d="M0 0 C1.32 0.66 2.64 1.32 4 2 C3.01 2.495 3.01 2.495 2 3 C2 3.66 2 4.32 2 5 C2.99 5.33 3.98 5.66 5 6 C4.01 6.495 4.01 6.495 3 7 C1.35 5.35 -0.3 3.7 -2 2 C-1.34 2 -0.68 2 0 2 C0 1.34 0 0.68 0 0 Z " fill="#56749D" transform="translate(136,338)"/>
<path d="M0 0 C0.99 0 1.98 0 3 0 C3.66 1.98 4.32 3.96 5 6 C4.01 6.33 3.02 6.66 2 7 C2 6.01 2 5.02 2 4 C1.01 3.67 0.02 3.34 -1 3 C-0.67 2.01 -0.34 1.02 0 0 Z " fill="#395C85" transform="translate(317,163)"/>
<path d="M0 0 C2.72426311 2.35277269 3.8141763 4.62496331 5 8 C3.68 7.34 2.36 6.68 1 6 C1 5.01 1 4.02 1 3 C0.34 3 -0.32 3 -1 3 C-0.67 2.01 -0.34 1.02 0 0 Z " fill="#627E9A" transform="translate(166,297)"/>
<path d="M0 0 C3.125 -0.1875 3.125 -0.1875 6 0 C5.443125 0.226875 4.88625 0.45375 4.3125 0.6875 C1.36753316 2.35896766 -0.68156544 4.55276352 -3 7 C-2.38722388 4.03824877 -1.74627478 2.61941217 0 0 Z " fill="#CFD4DB" transform="translate(378,189)"/>
<path d="M0 0 C2 2 2 2 2 6 C0.35 6 -1.3 6 -3 6 C-2.01 4.02 -1.02 2.04 0 0 Z " fill="#375D87" transform="translate(381,181)"/>
<path d="M0 0 C0.99 0.33 1.98 0.66 3 1 C3.73046875 3.06640625 3.73046875 3.06640625 4.1875 5.5625 C4.34605469 6.38878906 4.50460937 7.21507812 4.66796875 8.06640625 C4.77753906 8.70449219 4.88710938 9.34257812 5 10 C4.34 10 3.68 10 3 10 C3 8.02 3 6.04 3 4 C2.34 4 1.68 4 1 4 C0.67 2.68 0.34 1.36 0 0 Z " fill="#3F5D81" transform="translate(326,175)"/>
<path d="M0 0 C2.625 0.9375 2.625 0.9375 5 2 C4.01 2.99 3.02 3.98 2 5 C0.68 3.68 -0.64 2.36 -2 1 C-1.34 0.67 -0.68 0.34 0 0 Z " fill="#577291" transform="translate(301,153)"/>
</svg>