<svg version="1.1" xmlns="http://www.w3.org/2000/svg" viewBox="87.8 105 320.28 292">
<path d="M0 0 C27.47823211 2.55406645 54.60526116 11.33386988 78 26 C78.90806396 26.56412598 78.90806396 26.56412598 79.83447266 27.13964844 C86.98364462 31.61776478 86.98364462 31.61776478 90 34 C90 34.66 90 35.32 90 36 C91.05574219 36.33451172 91.05574219 36.33451172 92.1328125 36.67578125 C95.62727129 38.28970704 98.12585904 40.56039623 100.875 43.1875 C101.4009375 43.68145264 101.926875 44.17540527 102.46875 44.68432617 C103.98650154 46.11539578 105.49402593 47.55655773 107 49 C108.08667969 50.02480469 108.08667969 50.02480469 109.1953125 51.0703125 C112.6971046 54.45083042 115.54840778 57.78326139 118 62 C118 62.66 118 63.32 118 64 C118.66 64 119.32 64 120 64 C121.67617039 66.44837321 123.200013 68.87636316 124.6875 71.4375 C125.13303223 72.20304199 125.57856445 72.96858398 126.03759766 73.75732422 C133.0311271 86.06080225 138.15142422 99.11319306 141 113 C141.22429687 114.08764648 141.22429687 114.08764648 141.453125 115.19726562 C147.57328125 146.51030641 143.32725032 179.47277299 141 211 C138 210 138 210 137.05200195 208.41210938 C136.78347412 207.72955078 136.51494629 207.04699219 136.23828125 206.34375 C135.92842285 205.57740234 135.61856445 204.81105469 135.29931641 204.02148438 C134.81084229 202.77334961 134.81084229 202.77334961 134.3125 201.5 C133.60040796 199.7488785 132.88550634 197.99889719 132.16796875 196.25 C131.80622559 195.36570312 131.44448242 194.48140625 131.07177734 193.5703125 C117.83000205 161.81418259 100.06160277 130.65721351 77.3125 104.75 C75 102 75 102 75 100 C74.34 100 73.68 100 73 100 C73 99.34 73 98.68 73 98 C72.34 98 71.68 98 71 98 C69.44921875 96.390625 69.44921875 96.390625 67.6875 94.25 C65.01637687 91.09829823 62.35817172 88.44230671 59 86 C59.78375 87.03125 60.5675 88.0625 61.375 89.125 C62.58416698 90.74937977 63.79238894 92.37446318 65 94 C65.69222656 94.91394531 66.38445312 95.82789063 67.09765625 96.76953125 C84.62436644 120.49935089 98.84999099 147.22087664 111.08935547 174.01416016 C111.93259922 175.85301931 112.79554402 177.68280959 113.66015625 179.51171875 C114.12292969 180.49785156 114.58570313 181.48398437 115.0625 182.5 C115.44535156 183.3146875 115.82820313 184.129375 116.22265625 184.96875 C117 187 117 187 117 190 C90.03227597 189.35929813 62.26730766 174.09474675 43 156 C42.07832031 155.13503906 41.15664062 154.27007812 40.20703125 153.37890625 C35.7625 149.07218992 35.7625 149.07218992 34 147 C34 146.34 34 145.68 34 145 C33.34 145 32.68 145 32 145 C30.7824707 143.62988281 30.7824707 143.62988281 29.42578125 141.703125 C28.92651123 140.99800781 28.42724121 140.29289063 27.9128418 139.56640625 C27.384729 138.80199219 26.85661621 138.03757812 26.3125 137.25 C25.50002808 136.08017578 25.50002808 136.08017578 24.67114258 134.88671875 C-1.79692214 96.43378763 -6.84460967 50.51783931 -1 5 C-0.68129364 3.33047458 -0.35175519 1.66287618 0 0 Z " fill="#3B638E" transform="translate(91,186)"/>
<path d="M0 0 C5.7974104 0.54674765 10.407508 2.85531327 15.5625 5.375 C16.39974609 5.77460938 17.23699219 6.17421875 18.09960938 6.5859375 C22.18574132 8.55297489 26.16428272 10.56835919 30 13 C29.5422281 14.68765239 29.0837511 16.37511352 28.625 18.0625 C28.35300781 19.06796875 28.08101563 20.0734375 27.80078125 21.109375 C27.17857678 23.35538137 26.5055815 25.58734359 25.8125 27.8125 C24.58888475 32.37604372 24.58888475 32.37604372 25 37 C26.85574057 38.97447279 28.83565292 40.6308401 30.953125 42.3203125 C33.35404154 44.29053027 35.17702457 46.49340879 37 49 C44.51190773 47.76617522 44.51190773 47.76617522 51.875 45.875 C54.88687103 45.03167611 56.91058082 44.65511201 60 45 C64.60146294 49.26618046 67.17672332 56.14150777 69.875 61.75 C70.34075439 62.70628296 70.34075439 62.70628296 70.81591797 63.68188477 C72.47323474 67.26024621 73.37707725 70.04823039 73 74 C72.01 74.515625 71.02 75.03125 70 75.5625 C66.09743708 77.76414955 62.96140996 80.55868146 59.69921875 83.609375 C58 85 58 85 56 85 C56.19514204 87.36738111 56.42590206 89.71685681 56.72265625 92.07421875 C57 95 57 95 56.80859375 97.83203125 C56.81356564 101.38693402 57.01629875 102.99764136 59 106 C64.5623219 109.40245577 70.89715642 111.36604369 77.08227539 113.32666016 C79 114 79 114 80 115 C80.32689575 121.9065421 79.43444581 128.18220972 78.0625 134.9375 C77.88009766 135.88173828 77.69769531 136.82597656 77.50976562 137.79882812 C76.1520901 144.69581981 76.1520901 144.69581981 75 147 C67.08 147.33 59.16 147.66 51 148 C50.01 150.97 50.01 150.97 49 154 C47.46780941 156.57951075 45.82203346 159.04836726 44.14453125 161.53515625 C42.69379069 164.65944736 42.85123226 165.77181724 44 169 C45.28078436 171.25517419 46.57813418 173.40235769 48 175.5625 C53.08690264 183.34403813 53.08690264 183.34403813 53 186 C50.94921875 188.35546875 50.94921875 188.35546875 48 191 C46.97819787 192.03039704 45.96404981 193.06843137 44.95703125 194.11328125 C43.90889967 195.17973223 42.86072214 196.24613804 41.8125 197.3125 C41.27947266 197.86228516 40.74644531 198.41207031 40.19726562 198.97851562 C38.83575044 200.35715678 37.42159498 201.68339727 36 203 C35.34 203 34.68 203 34 203 C34 203.66 34 204.32 34 205 C31.97265625 205.8046875 31.97265625 205.8046875 29 206 C26.25942414 204.68958827 23.88164996 202.9178573 21.4375 201.125 C20.12736063 200.18497821 18.81366189 199.24989323 17.49609375 198.3203125 C16.92044678 197.90023926 16.3447998 197.48016602 15.75170898 197.04736328 C13.79583271 195.87792646 12.2559951 195.3205756 10 195 C6.73952319 196.15649866 6.73952319 196.15649866 3.375 197.875 C1.65410156 198.70644531 1.65410156 198.70644531 -0.1015625 199.5546875 C-1.73473397 200.36907219 -3.367708 201.183854 -5 202 C-5.65871118 204.31996035 -5.65871118 204.31996035 -6.0703125 207.12890625 C-6.24433594 208.16337891 -6.41835938 209.19785156 -6.59765625 210.26367188 C-6.77167969 211.35228516 -6.94570313 212.44089844 -7.125 213.5625 C-7.30675781 214.65498047 -7.48851562 215.74746094 -7.67578125 216.87304688 C-8.12510746 219.5808285 -8.56612573 222.28970677 -9 225 C-11.99948391 225.33865141 -14.99944926 225.67105073 -18 226 C-19.25876953 226.14308594 -19.25876953 226.14308594 -20.54296875 226.2890625 C-25.73140945 226.85214909 -30.78126961 227.09664316 -36 227 C-37.23516955 222.19915233 -37.14428808 217.49823654 -37.1328125 212.578125 C-37.13376923 211.67753357 -37.13472595 210.77694214 -37.13571167 209.84906006 C-37.13639029 207.95292084 -37.13455824 206.05677925 -37.13037109 204.16064453 C-37.1249933 201.24636694 -37.13033964 198.33224172 -37.13671875 195.41796875 C-37.1360584 193.57552049 -37.13477814 191.73307233 -37.1328125 189.890625 C-37.13483673 189.01464661 -37.13686096 188.13866821 -37.13894653 187.23614502 C-37.11496685 181.11496685 -37.11496685 181.11496685 -36 180 C-34.25215533 179.86439136 -32.50126074 179.76772791 -30.75 179.6875 C-11.1499463 178.15479438 3.51224159 168.57313554 16.375 154.4375 C27.79866705 140.1662913 31.89591864 123.05620641 31 105 C29.63051538 92.76131465 26.05134158 81.13630352 19 71 C18.46375 70.22914063 17.9275 69.45828125 17.375 68.6640625 C6.69054149 54.17079239 -7.7533702 46.14615949 -25 42 C-28.03657643 41.56422707 -30.99544053 41.26844659 -34.05859375 41.140625 C-36 41 -36 41 -37 40 C-37.08775605 37.85441173 -37.10695219 35.70595579 -37.09765625 33.55859375 C-37.09443359 32.25341797 -37.09121094 30.94824219 -37.08789062 29.60351562 C-37.07953401 28.2148431 -37.07106905 26.82617123 -37.0625 25.4375 C-37.05748666 24.04492344 -37.05292347 22.65234519 -37.04882812 21.25976562 C-37.03699434 17.8398013 -37.0205088 14.41992156 -37 11 C-35.68 11 -34.36 11 -33 11 C-33 11.66 -33 12.32 -33 13 C-30.62561751 13.3383344 -28.25065041 13.67079002 -25.875 14 C-25.20984375 14.09539062 -24.5446875 14.19078125 -23.859375 14.2890625 C-21.91020029 14.55659628 -19.9549784 14.77883073 -18 15 C-16.41638672 15.19335938 -16.41638672 15.19335938 -14.80078125 15.390625 C-11.79524514 15.24323841 -11.79524514 15.24323841 -9.55078125 12.734375 C-8.44283203 11.25710937 -8.44283203 11.25710937 -7.3125 9.75 C-6.56613281 8.77546875 -5.81976563 7.8009375 -5.05078125 6.796875 C-4.37402344 5.87390625 -3.69726562 4.9509375 -3 4 C-2 2.66666667 -1 1.33333333 0 0 Z " fill="#1D2534" transform="translate(280,165)"/>
<path d="M0 0 C-0.62759865 2.92879371 -1.58622659 5.36095629 -3 8 C-2.31292969 8.23460938 -1.62585938 8.46921875 -0.91796875 8.7109375 C2.6100198 10.26948666 5.59101534 12.36031779 8.6875 14.625 C9.29674316 15.06650391 9.90598633 15.50800781 10.53369141 15.96289062 C22.41570036 24.63042799 22.41570036 24.63042799 26 28 C26 28.66 26 29.32 26 30 C26.66 30 27.32 30 28 30 C28 30.66 28 31.32 28 32 C28.66 32 29.32 32 30 32 C31.60634015 33.73391951 33.1375287 35.538091 34.625 37.375 C35.44226563 38.37273437 36.25953125 39.37046875 37.1015625 40.3984375 C39 43 39 43 39 45 C39.66 45 40.32 45 41 45 C42.91956908 47.7888079 44.61078224 50.68588884 46.34375 53.59375 C46.8903125 54.3878125 47.436875 55.181875 48 56 C48.66 56 49.32 56 50 56 C50.36629408 51.72656908 49.40814077 49.51187196 47 46 C48.65 43.69 50.3 41.38 52 39 C53.7015625 39.2784375 53.7015625 39.2784375 55.4375 39.5625 C56.613125 39.706875 57.78875 39.85125 59 40 C60.38544436 38.82795044 60.38544436 38.82795044 60.3125 35.5625 C61 32 61 32 62.6875 30.5625 C65.519818 29.87355778 68.09628021 29.86801274 71 30 C71.20625 30.639375 71.4125 31.27875 71.625 31.9375 C72.89538209 34.34925077 72.89538209 34.34925077 76.125 34.75 C77.07375 34.8325 78.0225 34.915 79 35 C79.99 32.525 79.99 32.525 81 30 C84.73487777 30.4979837 86.81237635 30.87491756 90 33 C89.67 35.31 89.34 37.62 89 40 C90.0725 40.144375 91.145 40.28875 92.25 40.4375 C94.10625 40.7159375 94.10625 40.7159375 96 41 C97.11375 41.0928125 97.11375 41.0928125 98.25 41.1875 C101.26140256 42.58565119 101.88741612 45.01359065 103 48 C102.875 50.3125 102.875 50.3125 102 52 C101.01 52.33 100.02 52.66 99 53 C99 55.31 99 57.62 99 60 C100.65 60.66 102.3 61.32 104 62 C103.67 64.97 103.34 67.94 103 71 C99.535 71.99 99.535 71.99 96 73 C94.7619986 76.57644848 95.25073929 79.33694766 96 83 C93.8125 84.625 93.8125 84.625 91 86 C88.375 85.25 88.375 85.25 86 84 C82.39211426 82.77622818 82.39211426 82.77622818 79 84 C77.6954344 86.99615946 77.6954344 86.99615946 77 90 C74.03 90 71.06 90 68 90 C67.505 86.535 67.505 86.535 67 83 C62.1220282 82.11101052 62.1220282 82.11101052 57.25 82.625 C55 83 55 83 53.125 82.0625 C51.53601665 79.14936385 52.32324944 77.05856103 52.85546875 73.87109375 C53.1926147 71.88905684 53.1926147 71.88905684 51.8125 70.0625 C50.05144687 68.88370482 50.05144687 68.88370482 47.98046875 68.671875 C46 68 46 68 45.15625 66.35546875 C44.9396875 65.64003906 44.723125 64.92460937 44.5 64.1875 C36.65242949 45.15488645 7.84517611 28.42411809 -10.078125 20.66796875 C-10.71234375 20.44753906 -11.3465625 20.22710937 -12 20 C-12.99 22.475 -12.99 22.475 -14 25 C-14.99 25 -15.98 25 -17 25 C-18.68017719 21.9238458 -20.34171192 18.83800131 -22 15.75 C-22.47695313 14.87730469 -22.95390625 14.00460938 -23.4453125 13.10546875 C-23.89648438 12.26113281 -24.34765625 11.41679687 -24.8125 10.546875 C-25.23144531 9.77182617 -25.65039062 8.99677734 -26.08203125 8.19824219 C-27 6 -27 6 -27 2 C-25.83082031 1.93941406 -24.66164063 1.87882812 -23.45703125 1.81640625 C-21.90884386 1.73195966 -20.36066732 1.64731375 -18.8125 1.5625 C-18.04357422 1.52318359 -17.27464844 1.48386719 -16.48242188 1.44335938 C-10.92989094 1.13356151 -5.54845346 -0.15852724 0 0 Z M64 50 C61.21752694 54.57761697 60.34063031 58.54193519 61.17578125 63.77734375 C62.81059033 68.18590473 65.93684752 70.79741566 70 73 C74.73615106 74.16410447 78.0186533 73.47250026 82.375 71.375 C86.34730892 67.78100622 87.80497277 64.82025411 88.375 59.5 C87.86367377 54.72762189 86.59010848 51.44103581 83 48.1875 C76.35998356 44.24499024 69.60438515 44.916953 64 50 Z " fill="#3F5E86" transform="translate(282,119)"/>
<path d="M0 0 C7.26 0 14.52 0 22 0 C22 45.21 22 90.42 22 137 C18.68709234 135.34354617 17.45950938 134.7006976 15.1953125 132.13671875 C14.69386719 131.57919922 14.19242188 131.02167969 13.67578125 130.44726562 C12.90814453 129.57618164 12.90814453 129.57618164 12.125 128.6875 C9.12910306 125.30466497 6.19193731 122.06401057 2.6796875 119.20703125 C0 117 0 117 -1 115 C-1.09440872 113.48178992 -1.12629888 111.9594817 -1.12698364 110.43833923 C-1.12980347 109.4778215 -1.13262329 108.51730377 -1.13552856 107.52767944 C-1.13350433 106.47045685 -1.1314801 105.41323425 -1.12939453 104.32397461 C-1.13114685 103.21338181 -1.13289917 102.102789 -1.13470459 100.95854187 C-1.13912005 97.27312679 -1.13618637 93.58775936 -1.1328125 89.90234375 C-1.13348558 87.35168956 -1.13445564 84.80103544 -1.13571167 82.25038147 C-1.13718819 76.89958019 -1.13513014 71.54879614 -1.13037109 66.19799805 C-1.12492594 60.00408701 -1.12669348 53.81020886 -1.1321975 47.61629862 C-1.13727408 41.6661126 -1.13674729 35.71593685 -1.13381577 29.76574898 C-1.13314631 27.22947752 -1.13397558 24.69320523 -1.13629532 22.15693474 C-1.13882015 18.62014377 -1.13498377 15.08341701 -1.12939453 11.54663086 C-1.13141876 10.48738403 -1.13344299 9.42813721 -1.13552856 8.33679199 C-1.13270874 7.37909409 -1.12988892 6.42139618 -1.12698364 5.43467712 C-1.12660662 4.59752135 -1.12622959 3.76036558 -1.12584114 2.89784145 C-1 1 -1 1 0 0 Z " fill="#35537A" transform="translate(196,105)"/>
<path d="M0 0 C10.01195516 0.16177306 18.95237906 4.30817176 26.75 10.3125 C27.86181641 11.08400391 27.86181641 11.08400391 28.99609375 11.87109375 C29.57488281 12.34675781 30.15367187 12.82242188 30.75 13.3125 C30.75 13.9725 30.75 14.6325 30.75 15.3125 C31.41 15.3125 32.07 15.3125 32.75 15.3125 C42.04130167 24.82177942 45.7471104 37.70716778 46.0625 50.625 C45.84708472 64.95729672 41.42040251 76.74915266 31.75 87.3125 C28.89424202 89.88015496 25.90880641 92.132639 22.75 94.3125 C21.698125 95.055 20.64625 95.7975 19.5625 96.5625 C13.08043039 100.10094741 4.09383386 101.79670883 -3.25 101.3125 C-4.25 100.3125 -4.25 100.3125 -4.36352539 98.54663086 C-4.35828857 97.79776611 -4.35305176 97.04890137 -4.34765625 96.27734375 C-4.34443359 95.46845703 -4.34121094 94.65957031 -4.33789062 93.82617188 C-4.32951172 92.97603516 -4.32113281 92.12589844 -4.3125 91.25 C-4.30798828 90.39599609 -4.30347656 89.54199219 -4.29882812 88.66210938 C-4.28700373 86.54554337 -4.26906769 84.42901315 -4.25 82.3125 C-3.65147217 82.13372314 -3.05294434 81.95494629 -2.4362793 81.77075195 C9.03784155 78.28195443 16.83904538 73.19041843 22.734375 62.59375 C25.96868563 55.32899074 25.60360775 47.1216777 23.1875 39.6875 C20.33065765 32.6253058 16.38859752 27.25587599 9.375 24 C7.84466732 23.40735825 6.30216944 22.84533429 4.75 22.3125 C3.90050781 22.01472656 3.05101562 21.71695313 2.17578125 21.41015625 C0.04132773 20.68303472 -2.09973548 19.9908452 -4.25 19.3125 C-4.27683987 16.33327407 -4.29676037 13.35428705 -4.3125 10.375 C-4.32087891 9.52486328 -4.32925781 8.67472656 -4.33789062 7.79882812 C-4.34111328 6.98994141 -4.34433594 6.18105469 -4.34765625 5.34765625 C-4.35289307 4.5987915 -4.35812988 3.84992676 -4.36352539 3.07836914 C-4.1587251 -0.1072664 -3.25298815 0.31278732 0 0 Z " fill="#1E2634" transform="translate(247.25,224.6875)"/>
<path d="M0 0 C0.495 2.97 0.495 2.97 1 6 C4.05263664 6.98120464 5.94736336 6.98120464 9 6 C12.56644318 9.74041602 12.56644318 9.74041602 14 12 C13.875 14.6875 13.875 14.6875 13 17 C12.505 18.485 12.505 18.485 12 20 C14.0072908 23.0109362 14.83884224 23.63016497 18 25 C18.125 31.75 18.125 31.75 17 34 C16.175 34.28875 15.35 34.5775 14.5 34.875 C11.8997702 35.73372914 11.8997702 35.73372914 11.0625 37.8125 C10.9827432 40.60398817 11.81801941 42.49698229 13 45 C11.02 47.475 11.02 47.475 9 50 C7.906875 49.649375 6.81375 49.29875 5.6875 48.9375 C2.09079627 47.66960546 2.09079627 47.66960546 -1 49 C-1.33 51.31 -1.66 53.62 -2 56 C-4.97 56 -7.94 56 -11 56 C-11.66 54.35 -12.32 52.7 -13 51 C-16.71736641 50.65099442 -16.71736641 50.65099442 -19.8125 52.5 C-20.204375 52.995 -20.59625 53.49 -21 54 C-23.9719385 52.87548273 -26.33440687 51.77706209 -29 50 C-28.62875 48.906875 -28.2575 47.81375 -27.875 46.6875 C-27.441875 44.8621875 -27.441875 44.8621875 -27 43 C-27.66 42.01 -28.32 41.02 -29 40 C-32.56769552 39.26393501 -32.56769552 39.26393501 -36 39 C-37.65480616 33.68720127 -37.65480616 33.68720127 -38 31 C-36.5381554 28.73414087 -35.38426369 28.19213184 -33 27 C-33.43147241 24.49746 -33.64631061 23.29927563 -35.625 21.625 C-37 20 -37 20 -36.8125 17 C-36 14 -36 14 -34 11 C-31.8359375 10.70703125 -31.8359375 10.70703125 -29.375 10.8125 C-28.55773437 10.83957031 -27.74046875 10.86664063 -26.8984375 10.89453125 C-26.27195312 10.92933594 -25.64546875 10.96414062 -25 11 C-25.33 8.36 -25.66 5.72 -26 3 C-22.55930376 0.70620251 -21.27709699 0 -17 0 C-15.25 2 -15.25 2 -14 4 C-10.8891846 3.34608221 -10.8891846 3.34608221 -9.9375 1 C-9.628125 0.34 -9.31875 -0.32 -9 -1 C-5.79937313 -2.60031344 -3.27728194 -1.03173691 0 0 Z M-18 17 C-20.8694861 20.23736893 -21.9003512 22.20280958 -22.4375 26.5 C-21.85652067 31.14783467 -20.50644727 34.31973189 -17.375 37.8125 C-13.67859173 39.66070413 -10.12299388 40.22905522 -6 40 C-2.24177731 38.26008209 -0.47160375 36.65416004 1.9375 33.3125 C3.34391381 28.92779812 3.34301793 25.41161043 2 21 C-0.54351234 17.7690519 -3.09389598 15.38603691 -7 14 C-11.59153355 14 -13.96729998 14.83962499 -18 17 Z " fill="#3E5D85" transform="translate(390,211)"/>
<path d="M0 0 C1.40958984 -0.00193359 1.40958984 -0.00193359 2.84765625 -0.00390625 C3.83636719 -0.00003906 4.82507813 0.00382813 5.84375 0.0078125 C7.32681641 0.00201172 7.32681641 0.00201172 8.83984375 -0.00390625 C9.77957031 -0.00261719 10.71929687 -0.00132812 11.6875 0 C12.55568359 0.00112793 13.42386719 0.00225586 14.31835938 0.00341797 C16.34375 0.1328125 16.34375 0.1328125 17.34375 1.1328125 C17.43875548 3.59725307 17.46932985 6.03355876 17.45727539 8.49829102 C17.45742142 9.26896912 17.45756744 10.03964722 17.4577179 10.8336792 C17.4570186 13.39305389 17.44922545 15.9523567 17.44140625 18.51171875 C17.43954213 20.28148865 17.4381182 22.05125906 17.43711853 23.82102966 C17.43329288 28.48832616 17.4234622 33.15559173 17.41241455 37.82287598 C17.40220144 42.58178285 17.39762113 47.34069471 17.39257812 52.09960938 C17.38183997 61.44402403 17.36476299 70.7884157 17.34375 80.1328125 C15.17500748 79.62677258 13.34407373 79.13297437 11.34375 78.1328125 C11.34375 77.4728125 11.34375 76.8128125 11.34375 76.1328125 C10.64738937 75.85813141 9.95102875 75.58345032 9.23356628 75.30044556 C7.80310722 74.72246719 7.80310722 74.72246719 6.34375 74.1328125 C5.33037064 73.73806732 4.31699127 73.34332214 3.27290344 72.93661499 C-0.20709559 71.30342158 -2.84592116 69.7696355 -5.65625 67.1328125 C-7.32662709 62.1325019 -7.0863178 57.25086453 -6.86328125 52.046875 C-6.84341149 50.57959933 -6.82873744 49.11224494 -6.8190155 47.64486694 C-6.7790425 43.79919136 -6.66620738 39.95898164 -6.53851318 36.11535645 C-6.42238192 32.19087149 -6.38074224 28.26561568 -6.33007812 24.33984375 C-6.24290666 18.62332194 -6.13030734 12.908548 -5.96020508 7.19384766 C-5.92623123 6.04469879 -5.89225739 4.89554993 -5.85725403 3.71157837 C-5.5186225 -0.63286909 -3.93270841 0.00510931 0 0 Z " fill="#496B92" transform="translate(171.65625,132.8671875)"/>
<path d="M0 0 C6.95856813 0.81865507 11.33475269 5.11259806 16 10 C20.1657726 14.25928995 24.27438854 18.3545283 29 22 C30.8125 23.625 30.8125 23.625 32 25 C32 25.66 32 26.32 32 27 C32.66 27 33.32 27 34 27 C35.41438406 28.57286684 36.75604401 30.21139996 38.0625 31.875 C41.0105559 35.57295883 44.00404783 39.12455065 47.25 42.5625 C58.50560178 55.01425458 67.09635981 69.02665721 74.84814453 83.84521484 C75.95402238 85.9139893 77.11874122 87.93569036 78.30859375 89.95703125 C80 93 80 93 80 95 C80.66 95 81.32 95 82 95 C82.17291697 105.7016389 81.63149942 116.32089373 81 127 C78 126 78 126 77.05200195 124.41210938 C76.78347412 123.72955078 76.51494629 123.04699219 76.23828125 122.34375 C75.92842285 121.57740234 75.61856445 120.81105469 75.29931641 120.02148438 C74.81084229 118.77334961 74.81084229 118.77334961 74.3125 117.5 C73.60040796 115.7488785 72.88550634 113.99889719 72.16796875 112.25 C71.625354 110.92355469 71.625354 110.92355469 71.07177734 109.5703125 C57.83000205 77.81418259 40.06160277 46.65721351 17.3125 20.75 C15 18 15 18 15 16 C14.34 16 13.68 16 13 16 C13 15.34 13 14.68 13 14 C12.34 14 11.68 14 11 14 C9.4140625 12.390625 9.4140625 12.390625 7.625 10.25 C5.66242273 7.93096298 3.7411705 5.74780716 1.5625 3.625 C0 2 0 2 0 0 Z " fill="#1E293A" transform="translate(151,270)"/>
<path d="M0 0 C1 1 1 1 1.12304783 2.85657597 C1.12166514 4.08302153 1.12166514 4.08302153 1.12025452 5.33424377 C1.12162918 6.26958954 1.12300385 7.2049353 1.12442017 8.16862488 C1.12082489 9.20296158 1.11722961 10.23729828 1.11352539 11.30297852 C1.11367142 12.38577087 1.11381744 13.46856323 1.1139679 14.58416748 C1.11326823 18.18243374 1.10547333 21.78064897 1.09765625 25.37890625 C1.09579226 27.86612418 1.09436827 30.35334248 1.09336853 32.84056091 C1.0899335 38.73021191 1.08204277 44.6198439 1.07201904 50.50948709 C1.05976246 57.87025374 1.05437791 65.23102264 1.04882812 72.59179688 C1.03808815 85.72787398 1.02120089 98.86393583 1 112 C-3.52015935 110.49328022 -5.06107837 107.81493977 -7.5005188 103.81625366 C-11.18184415 95.82111466 -9.83341402 85.84001836 -9.68359375 77.26953125 C-9.67051985 75.06566447 -9.66056416 72.86177718 -9.65357971 70.65788269 C-9.62699559 64.8886894 -9.55835591 59.12075177 -9.48065186 53.35205078 C-9.4087342 47.45297222 -9.37700741 41.55368853 -9.34179688 35.65429688 C-9.26697597 24.10231628 -9.14767912 12.55126301 -9 1 C-6.01787087 -0.49106457 -3.28390342 -0.11941467 0 0 Z " fill="#3E6089" transform="translate(234,153)"/>
<path d="M0 0 C3.609375 -0.020625 7.21875 -0.04125 10.9375 -0.0625 C12.07695068 -0.071604 13.21640137 -0.08070801 14.39038086 -0.09008789 C15.28120361 -0.09258545 16.17202637 -0.09508301 17.08984375 -0.09765625 C18.46450806 -0.10551147 18.46450806 -0.10551147 19.86694336 -0.11352539 C22 0 22 0 23 1 C23.08783542 3.21855264 23.10694609 5.43988496 23.09765625 7.66015625 C23.0962413 8.32462265 23.09482635 8.98908905 23.09336853 9.6736908 C23.08775518 11.80333899 23.07520054 13.93288339 23.0625 16.0625 C23.05748671 17.50325369 23.05292351 18.94400903 23.04882812 20.38476562 C23.03778145 23.92321102 23.02050792 27.46159539 23 31 C19.19205646 30.2987044 16.11885852 29.24936292 12.625 27.5625 C8.34208075 25.49509662 4.71432516 24.34695005 0 23 C0 15.41 0 7.82 0 0 Z " fill="#3D6089" transform="translate(136,164)"/>
<path d="M0 0 C0.99 0.33 1.98 0.66 3 1 C2.67 33.01 2.34 65.02 2 98 C3.98 98 5.96 98 8 98 C8 65.66 8 33.32 8 0 C8.66 0 9.32 0 10 0 C10 36.63 10 73.26 10 111 C5.47984065 109.49328022 3.93892163 106.81493977 1.4994812 102.81625366 C-2.18184415 94.82111466 -0.83341402 84.84001836 -0.68359375 76.26953125 C-0.67051985 74.06566447 -0.66056416 71.86177718 -0.65357971 69.65788269 C-0.62699559 63.8886894 -0.55835591 58.12075177 -0.48065186 52.35205078 C-0.4087342 46.45297222 -0.37700741 40.55368853 -0.34179688 34.65429688 C-0.26697597 23.10231628 -0.14767912 11.55126301 0 0 Z " fill="#445A77" transform="translate(225,154)"/>
<path d="M0 0 C1.40958984 -0.00193359 1.40958984 -0.00193359 2.84765625 -0.00390625 C3.83636719 -0.00003906 4.82507813 0.00382813 5.84375 0.0078125 C7.32681641 0.00201172 7.32681641 0.00201172 8.83984375 -0.00390625 C9.77957031 -0.00261719 10.71929687 -0.00132812 11.6875 0 C12.55568359 0.00112793 13.42386719 0.00225586 14.31835938 0.00341797 C16.34375 0.1328125 16.34375 0.1328125 17.34375 1.1328125 C17.43875548 3.59725307 17.46932985 6.03355876 17.45727539 8.49829102 C17.45742142 9.26896912 17.45756744 10.03964722 17.4577179 10.8336792 C17.4570186 13.39305389 17.44922545 15.9523567 17.44140625 18.51171875 C17.43954213 20.28148865 17.4381182 22.05125906 17.43711853 23.82102966 C17.43329288 28.48832616 17.4234622 33.15559173 17.41241455 37.82287598 C17.40220144 42.58178285 17.39762113 47.34069471 17.39257812 52.09960938 C17.38183997 61.44402403 17.36476299 70.7884157 17.34375 80.1328125 C15.40625 79.7578125 15.40625 79.7578125 13.34375 79.1328125 C12.84875 78.1428125 12.84875 78.1428125 12.34375 77.1328125 C13.33375 77.1328125 14.32375 77.1328125 15.34375 77.1328125 C15.01375 52.7128125 14.68375 28.2928125 14.34375 3.1328125 C9.72375 3.1328125 5.10375 3.1328125 0.34375 3.1328125 C-4.24812413 7.72468663 -3.69399098 12.49673186 -3.76977539 18.70092773 C-3.76961835 20.86442703 -3.76404539 23.0279307 -3.75390625 25.19140625 C-3.7524913 26.33569595 -3.75107635 27.47998566 -3.74961853 28.65895081 C-3.74404301 32.29609851 -3.73149498 35.93318355 -3.71875 39.5703125 C-3.71373184 42.0436189 -3.70916948 44.51692627 -3.70507812 46.99023438 C-3.6940816 53.03778162 -3.67736788 59.08529258 -3.65625 65.1328125 C-2.33625 65.7928125 -1.01625 66.4528125 0.34375 67.1328125 C0.34375 67.7928125 0.34375 68.4528125 0.34375 69.1328125 C-1.63625 68.4728125 -3.61625 67.8128125 -5.65625 67.1328125 C-5.67937635 58.5447553 -5.69716658 49.95671101 -5.70806217 41.36863041 C-5.71329036 37.3812405 -5.72038684 33.39387183 -5.73168945 29.40649414 C-5.74252061 25.56156136 -5.74852732 21.71664905 -5.75112724 17.87170219 C-5.75298108 16.40162267 -5.75660091 14.93154432 -5.76198006 13.46147346 C-5.76919355 11.40926783 -5.77024081 9.35714783 -5.76977539 7.30493164 C-5.771996 6.13466934 -5.77421661 4.96440704 -5.77650452 3.75868225 C-5.57478698 -0.64600877 -3.95367035 0.00513654 0 0 Z " fill="#4F647D" transform="translate(171.65625,132.8671875)"/>
<path d="M0 0 C6.27 0 12.54 0 19 0 C19 45.21 19 90.42 19 137 C14.98606077 134.99303039 13.55030536 133.55221103 11 130 C11 129.67 11 129.34 11 129 C12.65 129 14.3 129 16 129 C16.495 130.98 16.495 130.98 17 133 C17.04669202 116.49307794 17.08197509 99.98617725 17.10362434 83.47920513 C17.11394302 75.81497174 17.12801462 68.15077935 17.15087891 60.48657227 C17.17079471 53.8075315 17.18371213 47.12852042 17.18817699 40.44945079 C17.19078745 36.91195394 17.19693537 33.37454203 17.21146011 29.83707237 C17.22753176 25.89095831 17.22798085 21.94492785 17.22705078 17.9987793 C17.23424133 16.82202133 17.24143188 15.64526337 17.24884033 14.43284607 C17.246091 13.36012451 17.24334167 12.28740295 17.24050903 11.18217468 C17.24327441 9.78151024 17.24327441 9.78151024 17.24609566 8.35254955 C17.15615956 5.73035603 17.15615956 5.73035603 15 3 C11.94080357 2.67256668 11.94080357 2.67256668 8.5 2.875 C2.17012448 3.08506224 2.17012448 3.08506224 0 2 C0 1.34 0 0.68 0 0 Z " fill="#334964" transform="translate(199,105)"/>
<path d="M0 0 C1.32 0.33 2.64 0.66 4 1 C4.22346404 3.85369619 4.42913552 6.70688498 4.625 9.5625 C4.68945312 10.36236328 4.75390625 11.16222656 4.8203125 11.98632812 C5.07229781 15.8448532 5.12013586 18.61964365 3.94140625 22.3515625 C2.56464368 27.68723153 3.49876604 32.42024636 4.3125 37.8125 C4.45623047 38.86115234 4.59996094 39.90980469 4.74804688 40.99023438 C5.33001824 46.15350424 5.33001824 46.15350424 7 51 C5.515 51.495 5.515 51.495 4 52 C0.123972 34.59444032 -0.14931585 17.7754777 0 0 Z " fill="#4A6587" transform="translate(88,214)"/>
<path d="M0 0 C1.98 1.32 3.96 2.64 6 4 C5.67 4.66 5.34 5.32 5 6 C4.21625 5.938125 3.4325 5.87625 2.625 5.8125 C1.325625 5.9053125 1.325625 5.9053125 0 6 C-0.99 7.485 -0.99 7.485 -2 9 C-2.99 9.33 -3.98 9.66 -5 10 C-5 10.66 -5 11.32 -5 12 C-8.79049707 10.57250019 -12.27122456 8.83763458 -15.8125 6.875 C-17.27623047 6.06675781 -17.27623047 6.06675781 -18.76953125 5.2421875 C-19.50558594 4.83226562 -20.24164063 4.42234375 -21 4 C-21 3.34 -21 2.68 -21 2 C-20.0925 2.309375 -19.185 2.61875 -18.25 2.9375 C-15.83436662 3.7272263 -13.47219715 4.42949297 -11 5 C-11 4.01 -11 3.02 -11 2 C-10.06027344 1.90912109 -10.06027344 1.90912109 -9.1015625 1.81640625 C-8.28429687 1.73261719 -7.46703125 1.64882812 -6.625 1.5625 C-5.81289063 1.48128906 -5.00078125 1.40007812 -4.1640625 1.31640625 C-1.95727195 1.10909886 -1.95727195 1.10909886 0 0 Z " fill="#3C608C" transform="translate(292,135)"/>
<path d="M0 0 C1.67542976 0.28604898 3.34385343 0.61781233 5 1 C3.125 4.875 3.125 4.875 2 6 C0.74643805 12.32831518 0.87220734 18.62813165 0.90234375 25.05859375 C0.9037587 26.20288345 0.90517365 27.34717316 0.90663147 28.52613831 C0.91220699 32.16328601 0.92475502 35.80037105 0.9375 39.4375 C0.94251816 41.9108064 0.94708052 44.38411377 0.95117188 46.85742188 C0.9621684 52.90496912 0.97888212 58.95248008 1 65 C2.32 65.66 3.64 66.32 5 67 C5 67.66 5 68.32 5 69 C3.02 68.34 1.04 67.68 -1 67 C-1.02312635 58.4119428 -1.04091658 49.82389851 -1.05181217 41.23581791 C-1.05704036 37.248428 -1.06413684 33.26105933 -1.07543945 29.27368164 C-1.08627061 25.42874886 -1.09227732 21.58383655 -1.09487724 17.73888969 C-1.09673108 16.26881017 -1.10035091 14.79873182 -1.10573006 13.32866096 C-1.11294355 11.27645533 -1.11399081 9.22433533 -1.11352539 7.17211914 C-1.115746 6.00185684 -1.11796661 4.83159454 -1.12025452 3.62586975 C-1 1 -1 1 0 0 Z " fill="#546982" transform="translate(167,133)"/>
<path d="M0 0 C6.89915414 0.81166519 11.42963981 5.05907007 16 10 C17.02813611 11.31175986 18.04084432 12.6369893 19 14 C18.01 14 17.02 14 16 14 C15.01 14.66 14.02 15.32 13 16 C13 15.34 13 14.68 13 14 C12.34 14 11.68 14 11 14 C9.4140625 12.390625 9.4140625 12.390625 7.625 10.25 C5.66242273 7.93096298 3.7411705 5.74780716 1.5625 3.625 C0 2 0 2 0 0 Z " fill="#233246" transform="translate(151,270)"/>
<path d="M0 0 C6.93 0 13.86 0 21 0 C20.34 0.66 19.68 1.32 19 2 C17.10267 1.96671351 15.20529321 1.93025685 13.30859375 1.87109375 C9.2662169 2.09681022 5.77132195 3.58575427 2 5 C2 10.28 2 15.56 2 21 C2.99 21.33 3.98 21.66 5 22 C5 22.66 5 23.32 5 24 C3.35 23.67 1.7 23.34 0 23 C0 15.41 0 7.82 0 0 Z " fill="#516580" transform="translate(136,164)"/>
<path d="M0 0 C2.43800966 0.30887453 4.87535367 0.62194662 7.3125 0.9375 C8.00279297 1.02451172 8.69308594 1.11152344 9.40429688 1.20117188 C12.40142288 1.59210135 15.12450119 2.0415004 18 3 C17.67 3.66 17.34 4.32 17 5 C16.07316406 4.91621094 15.14632812 4.83242187 14.19140625 4.74609375 C12.99386719 4.64425781 11.79632813 4.54242188 10.5625 4.4375 C9.36753906 4.33308594 8.17257813 4.22867188 6.94140625 4.12109375 C5.97074219 4.08113281 5.00007813 4.04117188 4 4 C3.67 4.33 3.34 4.66 3 5 C2.34 5 1.68 5 1 5 C1.04125 5.928125 1.0825 6.85625 1.125 7.8125 C1.1462373 12.9731635 0.02043018 17.96162598 -1 23 C-1.33 23 -1.66 23 -2 23 C-2.27990605 15.10042938 -1.51537186 7.7527507 0 0 Z " fill="#455A75" transform="translate(91,186)"/>
<path d="M0 0 C0.33 0 0.66 0 1 0 C1.17015625 0.76183594 1.3403125 1.52367187 1.515625 2.30859375 C2.89866235 8.20121566 4.5402956 13.49792744 7.1484375 18.953125 C8.40077153 21.96332239 8.72456976 24.76369467 9 28 C8.34 28.33 7.68 28.66 7 29 C-2.23419755 7.68275673 -2.23419755 7.68275673 0 0 Z " fill="#4E6783" transform="translate(94,266)"/>
<path d="M0 0 C0.66 0 1.32 0 2 0 C3.5625 10.15625 3.5625 10.15625 1.5 13.25 C1.005 13.8275 0.51 14.405 0 15 C-2.475 14.01 -2.475 14.01 -5 13 C-4.34 12.67 -3.68 12.34 -3 12 C-2.08514427 9.19521805 -2.08514427 9.19521805 -1.375 5.9375 C-1.11460937 4.83277344 -0.85421875 3.72804687 -0.5859375 2.58984375 C-0.39257812 1.73519531 -0.19921875 0.88054687 0 0 Z " fill="#3F5673" transform="translate(399,246)"/>
<path d="M0 0 C3.96260237 1.55413992 6.06576897 4.07124717 8.75 7.3125 C9.54921875 8.25738281 10.3484375 9.20226562 11.171875 10.17578125 C13.11143594 13.17215424 13.43125727 14.51823178 13 18 C12.67 17.34 12.34 16.68 12 16 C11.01 16.33 10.02 16.66 9 17 C9.1546875 15.88625 9.1546875 15.88625 9.3125 14.75 C9.28811677 11.80793517 9.28811677 11.80793517 6.75 10 C5.8425 9.34 4.935 8.68 4 8 C0 3.56756757 0 3.56756757 0 0 Z " fill="#3A5777" transform="translate(144,268)"/>
<path d="M0 0 C1.2065625 0.9590625 1.2065625 0.9590625 2.4375 1.9375 C7.6002175 5.39970155 13.96232671 5.19476365 20 5 C19.0625 7 19.0625 7 17 9 C12.87815925 10.02208246 9.39694921 9.73535775 5.6328125 7.75390625 C3.55270443 6.26970102 1.70305404 4.90723491 0 3 C0 2.01 0 1.02 0 0 Z " fill="#3E5473" transform="translate(369,245)"/>
<path d="M0 0 C0.33 0 0.66 0 1 0 C1 8.58 1 17.16 1 26 C-3.01393923 23.99303039 -4.44969464 22.55221103 -7 19 C-7 18.67 -7 18.34 -7 18 C-5.35 18 -3.7 18 -2 18 C-1.67 19.32 -1.34 20.64 -1 22 C-0.67 14.74 -0.34 7.48 0 0 Z " fill="#394C63" transform="translate(217,216)"/>
<path d="M0 0 C0.12375 0.969375 0.2475 1.93875 0.375 2.9375 C0.58125 3.948125 0.7875 4.95875 1 6 C1.66 6.33 2.32 6.66 3 7 C2.67 7.66 2.34 8.32 2 9 C1.01 8.67 0.02 8.34 -1 8 C-1.33 6.02 -1.66 4.04 -2 2 C-4.97 1.505 -4.97 1.505 -8 1 C-8.309375 1.639375 -8.61875 2.27875 -8.9375 2.9375 C-10 5 -10 5 -11 6 C-12.66617115 6.04063832 -14.33388095 6.042721 -16 6 C-14 4 -14 4 -11 3 C-10.30062468 1.68352881 -9.63270867 0.34977849 -9 -1 C-5.79937313 -2.60031344 -3.27728194 -1.03173691 0 0 Z " fill="#455A75" transform="translate(390,211)"/>
<path d="M0 0 C5.94 0 11.88 0 18 0 C18 0.66 18 1.32 18 2 C14.01803543 3.05404945 11.01804691 2.84098656 7 2 C6.67 2.99 6.34 3.98 6 5 C4.35 5 2.7 5 1 5 C0.67 5.99 0.34 6.98 0 8 C-1.125 2.25 -1.125 2.25 0 0 Z " fill="#3A577E" transform="translate(259,121)"/>
<path d="M0 0 C0.99 0 1.98 0 3 0 C3.21914062 0.56589844 3.43828125 1.13179688 3.6640625 1.71484375 C4.63933043 3.97064641 5.59234148 5.98235613 7 8 C10.12133744 9.13478935 10.12133744 9.13478935 13 9 C12.67 10.65 12.34 12.3 12 14 C7.30840284 10.61227103 2.9700218 7.21814817 -1 3 C-0.67 2.01 -0.34 1.02 0 0 Z " fill="#4D6685" transform="translate(136,339)"/>
<path d="M0 0 C2.64 0.33 5.28 0.66 8 1 C8 1.33 8 1.66 8 2 C6.35 2 4.7 2 3 2 C3.4495045 3.31554985 3.90989716 4.62738358 4.375 5.9375 C4.63023437 6.66839844 4.88546875 7.39929688 5.1484375 8.15234375 C5.85271413 10.18682116 5.85271413 10.18682116 8 11 C8.625 14.0625 8.625 14.0625 9 17 C6 16 6 16 4.39453125 13.41796875 C3.87246094 12.35191406 3.35039062 11.28585938 2.8125 10.1875 C2.28269531 9.12917969 1.75289063 8.07085937 1.20703125 6.98046875 C0 4 0 4 0 0 Z " fill="#465A76" transform="translate(255,121)"/>
<path d="M0 0 C0.66 0 1.32 0 2 0 C2 1.65 2 3.3 2 5 C3.98 4.67 5.96 4.34 8 4 C8 5.32 8 6.64 8 8 C5.03 8 2.06 8 -1 8 C-1.66 6.02 -2.32 4.04 -3 2 C-2.01 1.67 -1.02 1.34 0 1 C0 0.67 0 0.34 0 0 Z " fill="#485F7C" transform="translate(380,259)"/>
<path d="M0 0 C2.05078125 0.03255208 4.1015625 0.06510417 6.15234375 0.09765625 C6.15234375 3.09765625 6.15234375 3.09765625 4.65234375 4.78515625 C4.15734375 5.21828125 3.66234375 5.65140625 3.15234375 6.09765625 C2.49234375 5.43765625 1.83234375 4.77765625 1.15234375 4.09765625 C0.49234375 4.75765625 -0.16765625 5.41765625 -0.84765625 6.09765625 C-2.97265625 6.72265625 -2.97265625 6.72265625 -4.84765625 7.09765625 C-2.62675581 0.13883487 -2.62675581 0.13883487 0 0 Z " fill="#3B5B7E" transform="translate(365.84765625,253.90234375)"/>
<path d="M0 0 C0.66 0 1.32 0 2 0 C2.33 1.65 2.66 3.3 3 5 C3.66 5 4.32 5 5 5 C5.50615298 6.26839526 6.00469099 7.53983102 6.5 8.8125 C6.91765625 9.87404297 6.91765625 9.87404297 7.34375 10.95703125 C8 13 8 13 8 16 C7.34 16 6.68 16 6 16 C4.98696238 14.27843904 3.99005152 12.54738194 3 10.8125 C2.443125 9.84957031 1.88625 8.88664062 1.3125 7.89453125 C-0.02216758 4.95111257 -0.27915461 3.18119943 0 0 Z " fill="#476282" transform="translate(105,298)"/>
<path d="M0 0 C0 0.66 0 1.32 0 2 C0.99 2.33 1.98 2.66 3 3 C3 5 3 7 3 9 C0.03 9 -2.94 9 -6 9 C-5.67 8.01 -5.34 7.02 -5 6 C-3.515 6.99 -3.515 6.99 -2 8 C-2.33 7.01 -2.66 6.02 -3 5 C-3.66 5 -4.32 5 -5 5 C-5 3 -5 3 -3.625 1.375 C-2 0 -2 0 0 0 Z " fill="#3D597C" transform="translate(356,200)"/>
<path d="M0 0 C-0.59927826 3.35595828 -1.84622436 5.37801226 -4 8 C-4 7.34 -4 6.68 -4 6 C-5.32 5.34 -6.64 4.68 -8 4 C-7.01 4 -6.02 4 -5 4 C-5.98267859 2.79438816 -5.98267859 2.79438816 -7.84765625 2.90234375 C-9.8984375 2.93489583 -11.94921875 2.96744792 -14 3 C-14 2.34 -14 1.68 -14 1 C-4.58997722 -0.14806378 -4.58997722 -0.14806378 0 0 Z " fill="#546886" transform="translate(282,119)"/>
<path d="M0 0 C3.1875 0.875 3.1875 0.875 6 2 C5.67 3.65 5.34 5.3 5 7 C3.68 7 2.36 7 1 7 C-1.25 4.5 -1.25 4.5 -3 2 C-2.01 1.34 -1.02 0.68 0 0 Z " fill="#455D7E" transform="translate(314,162)"/>
<path d="M0 0 C3.465 1.98 3.465 1.98 7 4 C7 4.66 7 5.32 7 6 C7.763125 6.2475 8.52625 6.495 9.3125 6.75 C12.2364045 8.10995558 13.30004356 9.31585826 15 12 C14.01 12.495 14.01 12.495 13 13 C13 12.34 13 11.68 13 11 C12.21625 10.690625 11.4325 10.38125 10.625 10.0625 C8 9 8 9 6 8 C6 7.34 6 6.68 6 6 C5.01 6.33 4.02 6.66 3 7 C0 3.375 0 3.375 0 0 Z " fill="#40587B" transform="translate(174,216)"/>
<path d="M0 0 C1.32 0 2.64 0 4 0 C4 0.66 4 1.32 4 2 C4.99 2.33 5.98 2.66 7 3 C7.66 3.66 8.32 4.32 9 5 C8 6 8 6 6.15234375 6.09765625 C4.1015625 6.06510417 2.05078125 6.03255208 0 6 C-0.38218767 4.34385343 -0.71395102 2.67542976 -1 1 C-0.67 0.67 -0.34 0.34 0 0 Z " fill="#363C46" transform="translate(244,386)"/>
<path d="M0 0 C0.33 1.32 0.66 2.64 1 4 C1.99 3.67 2.98 3.34 4 3 C4.144375 3.763125 4.28875 4.52625 4.4375 5.3125 C4.9632594 8.08172908 4.9632594 8.08172908 6 11 C1.86360664 9.40907948 -1.23213248 6.39525082 -4 3 C-4 2.34 -4 1.68 -4 1 C-2.68 0.67 -1.36 0.34 0 0 Z " fill="#445F82" transform="translate(130,331)"/>
<path d="M0 0 C3.07921132 -0.25660094 5.21136993 -0.39431504 8 1 C8 1.66 8 2.32 8 3 C9.65 2.67 11.3 2.34 13 2 C12.67 2.99 12.34 3.98 12 5 C10.1875 5.875 10.1875 5.875 8 6 C7.38125 5.525625 6.7625 5.05125 6.125 4.5625 C3.32450299 2.50331102 1.39275049 2.7686761 -2 3 C-1.34 2.01 -0.68 1.02 0 0 Z " fill="#445771" transform="translate(363,199)"/>
<path d="M0 0 C0.33 1.65 0.66 3.3 1 5 C-0.32 4.67 -1.64 4.34 -3 4 C-3.33 4.66 -3.66 5.32 -4 6 C-4.66 5.34 -5.32 4.68 -6 4 C-7.1446875 4.5259375 -7.1446875 4.5259375 -8.3125 5.0625 C-11 6 -11 6 -14 5 C-12.730447 4.35165346 -11.45930294 3.70642185 -10.1875 3.0625 C-9.47980469 2.70285156 -8.77210938 2.34320313 -8.04296875 1.97265625 C-5.21118833 0.62444722 -3.15756231 0 0 0 Z " fill="#1A2029" transform="translate(277,338)"/>
<path d="M0 0 C2.61371215 2.3932786 4.40088665 4.98397046 6.25 8 C6.79140625 8.86625 7.3328125 9.7325 7.890625 10.625 C9 13 9 13 8 16 C7.566875 15.38125 7.13375 14.7625 6.6875 14.125 C5.00259517 11.7802755 5.00259517 11.7802755 2 10 C1.26953125 7.6171875 1.26953125 7.6171875 0.8125 4.875 C0.65394531 3.96492188 0.49539062 3.05484375 0.33203125 2.1171875 C0.22246094 1.41851562 0.11289063 0.71984375 0 0 Z " fill="#3C5877" transform="translate(169,301)"/>
<path d="M0 0 C1.32 0.33 2.64 0.66 4 1 C4 1.99 4 2.98 4 4 C5.65 4 7.3 4 9 4 C9 4.66 9 5.32 9 6 C9.99 6.33 10.98 6.66 12 7 C10.68 8.32 9.36 9.64 8 11 C6.66375099 9.35653302 5.33107149 7.71016314 4 6.0625 C3.2575 5.14597656 2.515 4.22945313 1.75 3.28515625 C0 1 0 1 0 0 Z " fill="#292F3C" transform="translate(172,294)"/>
<path d="M0 0 C3 1 3 1 4.5 3.9375 C5.73449956 8.64035547 3.41700864 12.01654333 1.1640625 16.05859375 C0.77992188 16.69925781 0.39578125 17.33992188 0 18 C-0.66 18 -1.32 18 -2 18 C-1.690625 17.34 -1.38125 16.68 -1.0625 16 C0.83064242 10.65465669 1.55597867 5.53236862 0 0 Z " fill="#455D78" transform="translate(391,231)"/>
<path d="M0 0 C1.67542976 0.28604898 3.34385343 0.61781233 5 1 C5.33 2.32 5.66 3.64 6 5 C5.38125 5.103125 4.7625 5.20625 4.125 5.3125 C1.63473516 5.87525373 1.63473516 5.87525373 0 9 C-1 8 -1 8 -1.125 4.5 C-1 1 -1 1 0 0 Z " fill="#323741" transform="translate(244,345)"/>
<path d="M0 0 C2.31097404 2.86057532 3.82929391 5.58627129 5.1875 9 C5.53167969 9.845625 5.87585938 10.69125 6.23046875 11.5625 C7 14 7 14 7 18 C6.34 18 5.68 18 5 18 C4.74605469 17.15695312 4.49210938 16.31390625 4.23046875 15.4453125 C3.88628906 14.34960938 3.54210937 13.25390625 3.1875 12.125 C2.85105469 11.03445313 2.51460937 9.94390625 2.16796875 8.8203125 C1.19339495 5.72701275 1.19339495 5.72701275 -2 4 C-2 3.34 -2 2.68 -2 2 C-1.34 2 -0.68 2 0 2 C0 1.34 0 0.68 0 0 Z " fill="#435C7A" transform="translate(221,270)"/>
<path d="M0 0 C2.72957339 2.35735884 3.88893396 4.58133526 5 8 C5 8.99 5 9.98 5 11 C1.7 10.67 -1.6 10.34 -5 10 C-5 9.67 -5 9.34 -5 9 C-3.02 9 -1.04 9 1 9 C0.835 7.88625 0.67 6.7725 0.5 5.625 C0 2 0 2 0 0 Z " fill="#465D78" transform="translate(203,365)"/>
<path d="M0 0 C3.83520308 3.28731693 6.32465344 7.25147171 8 12 C7.67 12.66 7.34 13.32 7 14 C3 9.375 3 9.375 3 6 C2.01 6.33 1.02 6.66 0 7 C-0.38133299 5.0085944 -0.71325582 3.00720923 -1 1 C-0.67 0.67 -0.34 0.34 0 0 Z " fill="#486481" transform="translate(179,318)"/>
<path d="M0 0 C1.32 0.66 2.64 1.32 4 2 C3.67 4.97 3.34 7.94 3 11 C1.35 11 -0.3 11 -2 11 C-2 10.34 -2 9.68 -2 9 C-1.01 8.67 -0.02 8.34 1 8 C0.67 5.36 0.34 2.72 0 0 Z " fill="#445877" transform="translate(382,179)"/>
<path d="M0 0 C0.33 0.66 0.66 1.32 1 2 C3.40952023 3.24714403 3.40952023 3.24714403 6 4 C6.66 3.67 7.32 3.34 8 3 C7.6875 5.875 7.6875 5.875 7 9 C6.01 9.66 5.02 10.32 4 11 C3.566875 10.071875 3.13375 9.14375 2.6875 8.1875 C1.27961373 5.52815927 0.23876444 3.91894095 -2 2 C-1.34 2 -0.68 2 0 2 C0 1.34 0 0.68 0 0 Z " fill="#4E698A" transform="translate(365,164)"/>
<path d="M0 0 C0.9075 0.309375 1.815 0.61875 2.75 0.9375 C5.78062849 2.01271735 5.78062849 2.01271735 8.125 2.375 C10.76964897 3.25654966 12.11805764 4.99259481 14 7 C14.66 7.33 15.32 7.66 16 8 C16 8.66 16 9.32 16 10 C12.20950293 8.57250019 8.72877544 6.83763458 5.1875 4.875 C4.21167969 4.33617187 3.23585938 3.79734375 2.23046875 3.2421875 C1.49441406 2.83226562 0.75835937 2.42234375 0 2 C0 1.34 0 0.68 0 0 Z " fill="#4F6784" transform="translate(271,137)"/>
<path d="M0 0 C5.26170694 1.41167747 8.72171358 3.74850232 13 7 C12.67 7.66 12.34 8.32 12 9 C10.02 8.34 8.04 7.68 6 7 C6 6.01 6 5.02 6 4 C4.02 3.34 2.04 2.68 0 2 C0 1.34 0 0.68 0 0 Z " fill="#425775" transform="translate(160,208)"/>
<path d="M0 0 C0.66 0 1.32 0 2 0 C2.66 0.66 3.32 1.32 4 2 C4.763125 1.649375 5.52625 1.29875 6.3125 0.9375 C9 0 9 0 12 1 C10.02 2.65 8.04 4.3 6 6 C3.08482708 4.92598892 1.22189824 4.22189824 -1 2 C-0.67 1.34 -0.34 0.68 0 0 Z " fill="#516582" transform="translate(363,259)"/>
<path d="M0 0 C3.93619738 0.56231391 6.79192446 1.61685817 10 4 C10 4.99 10 5.98 10 7 C10.99 6.67 11.98 6.34 13 6 C13.33 7.32 13.66 8.64 14 10 C10.19136032 8.65378455 7.34590149 6.94641263 4.1875 4.4375 C3.39730469 3.81746094 2.60710937 3.19742188 1.79296875 2.55859375 C0.90544922 1.78708984 0.90544922 1.78708984 0 1 C0 0.67 0 0.34 0 0 Z " fill="#465874" transform="translate(295,152)"/>
<path d="M0 0 C1.67542976 0.28604898 3.34385343 0.61781233 5 1 C3.125 4.875 3.125 4.875 2 6 C1.63239269 8.32817964 1.29758419 10.6618385 1 13 C0.67 13 0.34 13 0 13 C-0.19397476 11.02145742 -0.38001321 9.0421352 -0.5625 7.0625 C-0.66691406 5.96035156 -0.77132812 4.85820312 -0.87890625 3.72265625 C-0.91886719 2.82417969 -0.95882812 1.92570313 -1 1 C-0.67 0.67 -0.34 0.34 0 0 Z " fill="#586E8B" transform="translate(167,133)"/>
<path d="M0 0 C0.33 0.66 0.66 1.32 1 2 C-0.98 4.97 -0.98 4.97 -3 8 C-4.32 6.68 -5.64 5.36 -7 4 C-6.67 3.01 -6.34 2.02 -6 1 C-5.01 1.33 -4.02 1.66 -3 2 C-2.01 1.34 -1.02 0.68 0 0 Z " fill="#405370" transform="translate(270,137)"/>
<path d="M0 0 C1.65 0.33 3.3 0.66 5 1 C4.34 2.98 3.68 4.96 3 7 C1.35 6.67 -0.3 6.34 -2 6 C-1.34 4.02 -0.68 2.04 0 0 Z " fill="#1B2432" transform="translate(183,300)"/>
<path d="M0 0 C2.475 0.495 2.475 0.495 5 1 C5.66 2.98 6.32 4.96 7 7 C7.99 6.67 8.98 6.34 10 6 C10 7.32 10 8.64 10 10 C8.35 9.67 6.7 9.34 5 9 C5 7.35 5 5.7 5 4 C4.360625 3.896875 3.72125 3.79375 3.0625 3.6875 C2.381875 3.460625 1.70125 3.23375 1 3 C0.67 2.01 0.34 1.02 0 0 Z " fill="#516783" transform="translate(344,198)"/>
<path d="M0 0 C0.33 0 0.66 0 1 0 C1 6.27 1 12.54 1 19 C-0.65 18.67 -2.3 18.34 -4 18 C-4.33 17.34 -4.66 16.68 -5 16 C-3.35 16 -1.7 16 0 16 C0 10.72 0 5.44 0 0 Z " fill="#52637A" transform="translate(158,176)"/>
<path d="M0 0 C-1 2 -1 2 -2.9375 2.875 C-5.42001234 4.22909764 -5.96871397 5.42178493 -7 8 C-7.66 8 -8.32 8 -9 8 C-9 6.02 -9 4.04 -9 2 C-5.86501708 0.14223235 -3.62528568 -0.20140476 0 0 Z " fill="#485974" transform="translate(352,149)"/>
<path d="M0 0 C0.66 0 1.32 0 2 0 C2 3.63 2 7.26 2 11 C1.01 10.67 0.02 10.34 -1 10 C-1.33 8.02 -1.66 6.04 -2 4 C-1.34 3.67 -0.68 3.34 0 3 C0 2.01 0 1.02 0 0 Z " fill="#181A25" transform="translate(230,386)"/>
<path d="M0 0 C3.32532111 2.69192661 4.52454943 6.06546515 6 10 C6 10.99 6 11.98 6 13 C5.34 13 4.68 13 4 13 C3.87625 12.195625 3.7525 11.39125 3.625 10.5625 C3.315625 9.2940625 3.315625 9.2940625 3 8 C2.34 7.67 1.68 7.34 1 7 C0.59270772 4.67843403 0.25561323 2.3431213 0 0 Z " fill="#3F5979" transform="translate(193,344)"/>
<path d="M0 0 C2.31 0.33 4.62 0.66 7 1 C6.67 1.66 6.34 2.32 6 3 C5.195625 3.12375 4.39125 3.2475 3.5625 3.375 C0.84016601 3.72567164 0.84016601 3.72567164 -0.3125 6.0625 C-0.6528125 7.0215625 -0.6528125 7.0215625 -1 8 C-1.66 8 -2.32 8 -3 8 C-1.125 2.25 -1.125 2.25 0 0 Z " fill="#40536C" transform="translate(356,222)"/>
<path d="M0 0 C0.66 0.33 1.32 0.66 2 1 C1.814375 1.53625 1.62875 2.0725 1.4375 2.625 C0.88580676 5.61990614 1.39402556 8.03745829 2 11 C1.01 11.495 1.01 11.495 0 12 C0 11.34 0 10.68 0 10 C-0.99 10.33 -1.98 10.66 -3 11 C-2.69217504 9.35328588 -2.37860766 7.70764424 -2.0625 6.0625 C-1.88847656 5.14597656 -1.71445312 4.22945312 -1.53515625 3.28515625 C-1 1 -1 1 0 0 Z " fill="#4F647F" transform="translate(376,191)"/>
<path d="M0 0 C3.15835107 1.39750048 5.32272825 3.05198234 7.75 5.5 C8.67039063 6.41265625 8.67039063 6.41265625 9.609375 7.34375 C11 9 11 9 11 11 C6.43250373 9.13916819 3.11420254 5.96311877 0.6875 1.6875 C0.460625 1.130625 0.23375 0.57375 0 0 Z " fill="#40566E" transform="translate(191,230)"/>
<path d="M0 0 C0.66 0.33 1.32 0.66 2 1 C2 1.99 2 2.98 2 4 C2.350625 4.78375 2.70125 5.5675 3.0625 6.375 C4.14117981 9.39530346 3.86796258 10.96213098 3 14 C2.67 14 2.34 14 2 14 C1.71125 12.9275 1.4225 11.855 1.125 10.75 C0.27179891 7.90599636 -0.5636503 5.56491017 -2 3 C-1.34 2.01 -0.68 1.02 0 0 Z " fill="#3D5471" transform="translate(331,162)"/>
<path d="M0 0 C0.66 0.99 1.32 1.98 2 3 C1.01 3.66 0.02 4.32 -1 5 C-1 5.99 -1 6.98 -1 8 C-1.99 7.67 -2.98 7.34 -4 7 C-4.33 6.01 -4.66 5.02 -5 4 C-3.36587557 2.29159719 -2.13093906 1.06546953 0 0 Z " fill="#425878" transform="translate(357,238)"/>
<path d="M0 0 C4.05606165 0.46800711 7.46588679 0.87953208 11 3 C11 3.66 11 4.32 11 5 C6.545 4.01 6.545 4.01 2 3 C2 2.34 2 1.68 2 1 C1.34 0.67 0.68 0.34 0 0 Z " fill="#3F5875" transform="translate(128,195)"/>
<path d="M0 0 C3.21705123 1.10932801 3.97446713 1.95460824 5.6875 5 C6.120625 5.99 6.55375 6.98 7 8 C7.33 8.66 7.66 9.32 8 10 C4.20401451 8.50871999 2.28279601 6.34266559 0 3 C0 2.01 0 1.02 0 0 Z " fill="#405B81" transform="translate(144,268)"/>
<path d="M0 0 C1.98 0.495 1.98 0.495 4 1 C4.125 7.75 4.125 7.75 3 10 C1.68 9.67 0.36 9.34 -1 9 C-0.505 8.236875 -0.01 7.47375 0.5 6.6875 C2.24368308 4.07636249 2.24368308 4.07636249 2 1 C1.34 0.67 0.68 0.34 0 0 Z " fill="#42526F" transform="translate(404,235)"/>
<path d="M0 0 C0.70511719 0.16371094 1.41023438 0.32742187 2.13671875 0.49609375 C5.09658688 1.01699824 7.81061273 1.09866732 10.8125 1.0625 C11.78832031 1.05347656 12.76414062 1.04445312 13.76953125 1.03515625 C14.50558594 1.02355469 15.24164063 1.01195312 16 1 C15.67 1.66 15.34 2.32 15 3 C12.63671875 3.44921875 12.63671875 3.44921875 9.6875 3.6875 C8.72199219 3.77386719 7.75648438 3.86023438 6.76171875 3.94921875 C4.25179726 3.99537006 2.37671157 3.75083762 0 3 C0 2.01 0 1.02 0 0 Z " fill="#425874" transform="translate(347,190)"/>
<path d="M0 0 C3.35693737 2.23795825 3.91970563 3.2189697 5 7 C4.625 9.3125 4.625 9.3125 4 11 C3.01 11 2.02 11 1 11 C1.33 10.01 1.66 9.02 2 8 C1.36971413 6.31923769 0.70211894 4.65204456 0 3 C0 2.01 0 1.02 0 0 Z " fill="#495C7A" transform="translate(380,160)"/>
<path d="M0 0 C0.33 1.32 0.66 2.64 1 4 C0.01 4.33 -0.98 4.66 -2 5 C-2.66 4.67 -3.32 4.34 -4 4 C-6.11683841 4.89163577 -6.11683841 4.89163577 -8 6 C-8.66 5.01 -9.32 4.02 -10 3 C-9.04287109 2.80083984 -9.04287109 2.80083984 -8.06640625 2.59765625 C-7.24011719 2.42105469 -6.41382813 2.24445313 -5.5625 2.0625 C-4.73878906 1.88847656 -3.91507812 1.71445313 -3.06640625 1.53515625 C-1.02338796 1.19247006 -1.02338796 1.19247006 0 0 Z " fill="#506989" transform="translate(318,159)"/>
<path d="M0 0 C0.66 0.33 1.32 0.66 2 1 C2.4140625 3.28515625 2.4140625 3.28515625 2.625 6.0625 C2.69976562 6.98160156 2.77453125 7.90070313 2.8515625 8.84765625 C2.92503906 9.91306641 2.92503906 9.91306641 3 11 C2.34 10.34 1.68 9.68 1 9 C0.01 9.495 0.01 9.495 -1 10 C-0.67 6.7 -0.34 3.4 0 0 Z " fill="#4A6486" transform="translate(228,289)"/>
<path d="M0 0 C7.75 0.75 7.75 0.75 10 3 C9.67 3.99 9.34 4.98 9 6 C8.34 5.34 7.68 4.68 7 4 C4.67724823 3.59952556 2.34260643 3.2602896 0 3 C0 2.01 0 1.02 0 0 Z " fill="#40536E" transform="translate(354,247)"/>
<path d="M0 0 C0 0.99 0 1.98 0 3 C-3.63 3 -7.26 3 -11 3 C-4.75 -0.125 -4.75 -0.125 0 0 Z " fill="#1C2029" transform="translate(269,387)"/>
<path d="M0 0 C0.99 0 1.98 0 3 0 C3.66 1.98 4.32 3.96 5 6 C4.01 6.33 3.02 6.66 2 7 C0.4375 5.1875 0.4375 5.1875 -1 3 C-0.67 2.01 -0.34 1.02 0 0 Z " fill="#526F9A" transform="translate(136,339)"/>
<path d="M0 0 C1.32 0.66 2.64 1.32 4 2 C3.67 2.99 3.34 3.98 3 5 C0.36 4.34 -2.28 3.68 -5 3 C-4.360625 2.690625 -3.72125 2.38125 -3.0625 2.0625 C-1.06389179 1.1654837 -1.06389179 1.1654837 0 0 Z " fill="#171C28" transform="translate(252,202)"/>
<path d="M0 0 C0.33 0 0.66 0 1 0 C1.33 2.97 1.66 5.94 2 9 C2.99 9.33 3.98 9.66 5 10 C5 10.66 5 11.32 5 12 C3.35 11.67 1.7 11.34 0 11 C0 7.37 0 3.74 0 0 Z " fill="#5E6F86" transform="translate(136,176)"/>
<path d="M0 0 C2.64 0.33 5.28 0.66 8 1 C8 1.33 8 1.66 8 2 C6.35 2 4.7 2 3 2 C3.33 3.32 3.66 4.64 4 6 C3.01 6 2.02 6 1 6 C0.67 4.02 0.34 2.04 0 0 Z " fill="#556782" transform="translate(255,121)"/>
<path d="M0 0 C0.66 0 1.32 0 2 0 C2.33 0.99 2.66 1.98 3 3 C0.57202689 5.42797311 -2.1299269 7.1282132 -5 9 C-3.50079488 5.88626628 -1.91847864 2.87771795 0 0 Z " fill="#192027" transform="translate(300,314)"/>
<path d="M0 0 C0.66 0 1.32 0 2 0 C3.32421875 1.609375 3.32421875 1.609375 4.6875 3.75 C5.14511719 4.44609375 5.60273438 5.1421875 6.07421875 5.859375 C7.16906025 8.39090725 6.9435441 9.46100862 6 12 C5.74605469 11.45730469 5.49210938 10.91460937 5.23046875 10.35546875 C4.71419922 9.28232422 4.71419922 9.28232422 4.1875 8.1875 C3.85105469 7.47980469 3.51460937 6.77210938 3.16796875 6.04296875 C1.99354529 3.98870965 0.74371984 2.58383722 -1 1 C-0.67 0.67 -0.34 0.34 0 0 Z " fill="#415979" transform="translate(213,257)"/>
<path d="M0 0 C3.3125 0.1875 3.3125 0.1875 7 1 C8.9375 3.5625 8.9375 3.5625 10 6 C5.56909529 4.79157144 3.01887244 3.48331435 0 0 Z " fill="#4A6182" transform="translate(151,354)"/>
<path d="M0 0 C3.2910841 3.60957611 4.54663921 6.12637153 5 11 C4.01 10.67 3.02 10.34 2 10 C1.34 6.7 0.68 3.4 0 0 Z " fill="#495E7D" transform="translate(187,332)"/>
<path d="M0 0 C1.65 0 3.3 0 5 0 C5.33 1.65 5.66 3.3 6 5 C5.01 5 4.02 5 3 5 C1.3125 2.5 1.3125 2.5 0 0 Z " fill="#3D566F" transform="translate(210,234)"/>
<path d="M0 0 C0.66 0.33 1.32 0.66 2 1 C2.59355614 3.64860427 2.74209269 6.29197322 3 9 C2.01 9 1.02 9 0 9 C-0.87890625 2.84765625 -0.87890625 2.84765625 -1 1 C-0.67 0.67 -0.34 0.34 0 0 Z " fill="#476488" transform="translate(379,171)"/>
<path d="M0 0 C3.73487777 0.4979837 5.81237635 0.87491756 9 3 C8.67 3.66 8.34 4.32 8 5 C7.1646875 4.505 7.1646875 4.505 6.3125 4 C3.69715478 2.8690399 1.8193354 2.84337026 -1 3 C-0.67 2.01 -0.34 1.02 0 0 Z " fill="#455570" transform="translate(363,149)"/>
<path d="M0 0 C0.66 0.66 1.32 1.32 2 2 C1.01 2.33 0.02 2.66 -1 3 C-1.73323796 5.01508358 -1.73323796 5.01508358 -2 7 C-2.66 6.67 -3.32 6.34 -4 6 C-4 4.35 -4 2.7 -4 1 C-2.125 0.375 -2.125 0.375 0 0 Z " fill="#536E8D" transform="translate(390,257)"/>
<path d="M0 0 C0.99 0.33 1.98 0.66 3 1 C2.625 3.4375 2.625 3.4375 2 6 C1.01 6.495 1.01 6.495 0 7 C-0.38133299 5.0085944 -0.71325582 3.00720923 -1 1 C-0.67 0.67 -0.34 0.34 0 0 Z " fill="#385B81" transform="translate(317,163)"/>
<path d="M0 0 C-3.625 3 -3.625 3 -7 3 C-7 2.34 -7 1.68 -7 1 C-7.66 0.67 -8.32 0.34 -9 0 C-5.52176885 -1.15941038 -3.54104422 -0.70820884 0 0 Z " fill="#405B7B" transform="translate(354,164)"/>
<path d="M0 0 C2.96404505 2.80804268 5.44499019 5.18315774 7 9 C3.17475764 7.549046 1.80909034 5.61818068 0 2 C0 1.34 0 0.68 0 0 Z " fill="#192C45" transform="translate(189,303)"/>
<path d="M0 0 C0.99 0.33 1.98 0.66 3 1 C2.34 2.65 1.68 4.3 1 6 C-0.32 4.68 -1.64 3.36 -3 2 C-2.01 1.34 -1.02 0.68 0 0 Z " fill="#1B2430" transform="translate(186,307)"/>
<path d="M0 0 C0.33 0 0.66 0 1 0 C1.0272415 1.41655793 1.04650467 2.83327045 1.0625 4.25 C1.07410156 5.03890625 1.08570313 5.8278125 1.09765625 6.640625 C1.00385306 8.90691002 0.63241063 10.8288895 0 13 C-0.66 12.67 -1.32 12.34 -2 12 C-1.85831863 10.56208484 -1.71148957 9.1246763 -1.5625 7.6875 C-1.48128906 6.88699219 -1.40007812 6.08648437 -1.31640625 5.26171875 C-1 3 -1 3 0 0 Z " fill="#151B26" transform="translate(291,278)"/>
<path d="M0 0 C1.9375 0.8125 1.9375 0.8125 4 2 C4.33 2.99 4.66 3.98 5 5 C4.67 5.66 4.34 6.32 4 7 C3.01 7 2.02 7 1 7 C0.34 5.02 -0.32 3.04 -1 1 C-0.67 0.67 -0.34 0.34 0 0 Z " fill="#46688C" transform="translate(217,265)"/>
<path d="M0 0 C0.556875 0.7115625 0.556875 0.7115625 1.125 1.4375 C3.62646962 3.52205802 5.81593418 3.64621491 9 4 C8.67 4.99 8.34 5.98 8 7 C5.36 6.01 2.72 5.02 0 4 C0 2.68 0 1.36 0 0 Z " fill="#4B627D" transform="translate(141,184)"/>
<path d="M0 0 C0.99 0.495 0.99 0.495 2 1 C2 1.66 2 2.32 2 3 C3.65 3.33 5.3 3.66 7 4 C6.67 5.32 6.34 6.64 6 8 C5.566875 7.525625 5.13375 7.05125 4.6875 6.5625 C2.97690387 4.76313043 2.97690387 4.76313043 0 4 C0 2.68 0 1.36 0 0 Z " fill="#455B77" transform="translate(329,183)"/>
<path d="M0 0 C1.32 0.66 2.64 1.32 4 2 C3.01 2.33 2.02 2.66 1 3 C1.33 3.66 1.66 4.32 2 5 C1.01 5.99 0.02 6.98 -1 8 C-1.66 7.67 -2.32 7.34 -3 7 C-1.125 1.125 -1.125 1.125 0 0 Z " fill="#455D7B" transform="translate(334,158)"/>
<path d="M0 0 C1.94268841 2.91403262 3.46395304 5.85808576 5 9 C3.125 8.8125 3.125 8.8125 1 8 C-0.3125 5.625 -0.3125 5.625 -1 3 C-0.67 2.01 -0.34 1.02 0 0 Z " fill="#566781" transform="translate(199,355)"/>
<path d="M0 0 C0.66 0.33 1.32 0.66 2 1 C1.67 2.65 1.34 4.3 1 6 C-0.32 6.33 -1.64 6.66 -3 7 C-1.125 1.125 -1.125 1.125 0 0 Z " fill="#1A2026" transform="translate(305,306)"/>
<path d="M0 0 C1.32 0 2.64 0 4 0 C4 1.32 4 2.64 4 4 C4.66 4 5.32 4 6 4 C6 4.99 6 5.98 6 7 C3 6 3 6 1.3125 2.9375 C0.879375 1.968125 0.44625 0.99875 0 0 Z " fill="#59647B" transform="translate(229,258)"/>
<path d="M0 0 C1.65 0 3.3 0 5 0 C5.66 1.32 6.32 2.64 7 4 C5.68 4.33 4.36 4.66 3 5 C3 4.01 3 3.02 3 2 C2.01 1.67 1.02 1.34 0 1 C0 0.67 0 0.34 0 0 Z " fill="#262C32" transform="translate(335,210)"/>
<path d="M0 0 C1.32 0 2.64 0 4 0 C4 0.66 4 1.32 4 2 C4.66 2 5.32 2 6 2 C6.33 2.99 6.66 3.98 7 5 C6.01 5 5.02 5 4 5 C1.8125 2.5 1.8125 2.5 0 0 Z " fill="#7A899D" transform="translate(319,172)"/>
<path d="M0 0 C2.97 1.98 2.97 1.98 6 4 C5.67 4.66 5.34 5.32 5 6 C4.01 5.34 3.02 4.68 2 4 C0.68 4 -0.64 4 -2 4 C-2 3.01 -2 2.02 -2 1 C-1.34 0.67 -0.68 0.34 0 0 Z " fill="#576D8B" transform="translate(292,135)"/>
<path d="M0 0 C1.125 3.75 1.125 3.75 0 6 C-2.0625 6.625 -2.0625 6.625 -4 7 C-4.33 6.34 -4.66 5.68 -5 5 C-4.34 4.67 -3.68 4.34 -3 4 C-3 3.34 -3 2.68 -3 2 C-2.01 2 -1.02 2 0 2 C0 1.34 0 0.68 0 0 Z " fill="#486D93" transform="translate(201,368)"/>
<path d="M0 0 C2.97 0.495 2.97 0.495 6 1 C5.34 2.32 4.68 3.64 4 5 C3.01 4.67 2.02 4.34 1 4 C0.3125 1.9375 0.3125 1.9375 0 0 Z " fill="#1A202D" transform="translate(217,366)"/>
<path d="M0 0 C0.66 0 1.32 0 2 0 C5.22265625 5.2734375 5.22265625 5.2734375 6 7 C5.67 7.66 5.34 8.32 5 9 C0.57142857 3.85714286 0.57142857 3.85714286 0 0 Z " fill="#405B74" transform="translate(181,323)"/>
<path d="M0 0 C0.33 0.99 0.66 1.98 1 3 C-1.97 3 -4.94 3 -8 3 C-5.36657694 0.36657694 -3.69534435 0 0 0 Z " fill="#385B88" transform="translate(352,160)"/>
<path d="M0 0 C2.76276177 0.52268466 5.3260876 1.10869587 8 2 C8 2.66 8 3.32 8 4 C5.6875 4.25 5.6875 4.25 3 4 C1.1875 2 1.1875 2 0 0 Z " fill="#526689" transform="translate(369,159)"/>
<path d="M0 0 C1.67542976 0.28604898 3.34385343 0.61781233 5 1 C5.33 2.32 5.66 3.64 6 5 C3.08482708 3.92598892 1.22189824 3.22189824 -1 1 C-0.67 0.67 -0.34 0.34 0 0 Z " fill="#455974" transform="translate(288,146)"/>
</svg>